<?xml version="1.0" encoding="UTF-8" ?>
<!DOCTYPE svg PUBLIC "-//W3C//DTD SVG 1.1//EN" "http://www.w3.org/Graphics/SVG/1.1/DTD/svg11.dtd">
<svg width="512pt" height="512pt" viewBox="0 0 512 512" version="1.1" xmlns="http://www.w3.org/2000/svg">
<g id="#ff0000ff">
<path fill="#ff0000" opacity="1.00" d=" M 246.39 53.64 C 261.74 51.44 277.40 55.32 291.30 61.75 C 314.98 73.57 332.95 94.29 346.17 116.82 C 365.43 150.43 375.71 188.66 379.33 227.07 C 379.40 235.13 382.02 242.91 381.90 250.98 C 381.88 257.68 382.01 264.38 381.80 271.08 C 381.66 276.37 380.07 281.47 379.68 286.73 C 377.57 314.43 371.69 341.88 361.94 367.91 C 350.89 396.78 334.58 424.61 310.23 444.23 C 296.02 455.82 278.45 463.49 260.08 464.86 C 246.65 465.83 233.24 462.36 221.05 456.91 C 200.51 446.11 183.70 429.19 171.13 409.83 C 151.22 379.22 140.11 343.63 134.63 307.73 C 132.89 297.33 132.87 286.72 130.72 276.39 C 129.63 268.30 130.26 260.12 130.09 251.99 C 129.80 243.58 132.57 235.47 132.67 227.08 C 135.64 195.28 143.25 163.70 156.63 134.64 C 168.94 107.97 186.71 82.78 211.77 66.75 C 221.90 59.39 234.19 55.74 246.39 53.64 M 194.63 91.64 C 183.81 102.97 174.78 116.04 168.30 130.31 C 163.54 140.66 157.78 150.63 154.51 161.59 C 145.49 188.82 140.74 217.41 139.88 246.06 C 138.60 252.70 136.98 259.56 138.80 266.30 C 140.20 271.09 140.10 276.10 140.27 281.04 C 141.88 309.81 147.66 338.39 157.64 365.43 C 160.74 371.96 164.10 378.37 166.95 385.03 C 173.11 399.27 181.85 412.29 192.18 423.83 C 198.88 431.87 206.90 438.85 215.97 444.09 C 216.24 403.73 216.00 363.36 216.08 323.00 C 216.00 239.98 216.24 156.95 215.96 73.93 C 208.01 78.69 200.72 84.64 194.63 91.64 M 296.04 73.93 C 295.75 119.28 296.00 164.64 295.92 210.00 C 295.99 288.03 295.76 366.07 296.03 444.10 C 305.10 438.85 313.12 431.87 319.82 423.84 C 326.79 415.96 333.16 407.51 338.36 398.35 C 343.16 390.15 346.53 381.22 350.76 372.73 C 356.10 363.41 358.52 352.83 361.69 342.66 C 368.02 319.62 371.48 295.81 372.12 271.94 C 373.40 265.30 375.02 258.43 373.20 251.70 C 371.36 245.49 372.13 238.96 371.44 232.60 C 369.46 205.86 364.06 179.33 354.91 154.11 C 352.95 148.92 350.09 144.15 347.93 139.04 C 344.17 131.52 340.92 123.72 336.44 116.57 C 331.08 107.55 324.59 99.23 317.37 91.63 C 311.27 84.64 303.99 78.69 296.04 73.93 Z" />
</g>
</svg>
