<?xml version="1.0" encoding="UTF-8" ?>
<!DOCTYPE svg PUBLIC "-//W3C//DTD SVG 1.1//EN" "http://www.w3.org/Graphics/SVG/1.1/DTD/svg11.dtd">
<svg width="512pt" height="512pt" viewBox="0 0 512 512" version="1.1" xmlns="http://www.w3.org/2000/svg">
<g id="#ff0000ff">
<path fill="#ff0000" opacity="1.00" d=" M 250.36 53.23 C 264.47 52.06 278.62 55.77 291.36 61.64 C 317.34 74.99 336.66 98.47 350.09 123.95 C 368.08 157.84 376.67 195.90 380.32 233.86 C 381.59 240.50 382.13 247.24 381.96 254.00 C 381.79 263.20 382.53 272.52 380.72 281.61 C 380.17 284.82 379.88 288.08 379.58 291.33 C 375.06 331.67 364.48 372.12 342.81 406.81 C 332.33 423.44 319.16 438.68 302.75 449.70 C 290.79 458.16 276.58 463.23 262.04 464.77 C 243.40 466.23 224.54 460.29 209.26 449.70 C 186.50 434.34 170.02 411.30 158.20 386.84 C 145.20 359.92 137.65 330.65 133.66 301.10 C 132.40 293.89 132.27 286.53 130.89 279.34 C 129.97 273.94 130.06 268.45 130.04 263.00 C 130.15 253.40 129.55 243.69 131.54 234.23 C 134.07 210.84 137.84 187.47 144.97 165.00 C 153.22 138.74 165.35 113.32 183.14 92.14 C 193.56 79.74 206.20 69.10 220.64 61.66 C 229.95 57.16 240.09 54.41 250.36 53.23 M 194.63 91.63 C 183.99 102.79 175.04 115.62 168.63 129.65 C 164.90 137.27 161.24 144.93 157.68 152.63 C 151.38 169.56 146.70 187.12 143.95 204.99 C 142.97 209.83 142.13 214.71 141.95 219.66 C 167.04 219.78 192.14 219.73 217.23 219.69 C 217.71 208.47 217.31 197.23 217.44 186.00 C 217.31 148.41 217.69 110.81 217.25 73.23 C 208.74 78.00 201.07 84.29 194.63 91.63 M 296.04 73.95 C 295.57 85.29 295.96 96.65 295.84 108.00 C 295.84 138.00 295.83 168.00 295.84 198.00 C 295.88 205.23 295.58 212.46 296.19 219.68 C 320.81 219.75 345.43 219.77 370.05 219.66 C 369.88 214.42 368.89 209.27 367.91 204.13 C 365.38 187.59 360.97 171.39 355.46 155.60 C 353.49 149.85 350.30 144.63 347.94 139.04 C 344.06 131.30 340.71 123.27 336.06 115.95 C 329.50 104.88 321.01 95.12 312.01 85.99 C 307.09 81.48 301.82 77.31 296.04 73.95 M 141.98 298.40 C 142.15 305.08 143.62 311.60 144.80 318.15 C 147.25 333.28 151.61 348.02 156.52 362.51 C 158.24 367.76 161.32 372.39 163.50 377.44 C 165.42 381.81 167.47 386.13 169.48 390.46 C 176.43 405.02 186.39 417.90 197.39 429.61 C 203.28 435.53 209.89 440.81 217.26 444.79 C 217.35 442.51 217.44 440.23 217.46 437.96 C 217.41 398.64 217.46 359.32 217.43 320.00 C 217.40 312.79 217.65 305.58 217.20 298.37 C 192.13 298.37 167.05 298.32 141.98 298.40 M 296.21 298.39 C 295.37 313.24 296.06 328.13 295.84 342.99 C 295.95 376.69 295.62 410.38 296.00 444.07 C 311.25 435.49 322.55 421.62 332.58 407.58 C 341.56 395.05 346.60 380.36 353.76 366.82 C 358.85 353.80 362.62 340.25 365.64 326.60 C 367.21 317.22 369.62 307.94 370.02 298.40 C 345.42 298.33 320.81 298.36 296.21 298.39 Z" />
</g>
</svg>
