<?xml version="1.0" encoding="UTF-8" ?>
<!DOCTYPE svg PUBLIC "-//W3C//DTD SVG 1.1//EN" "http://www.w3.org/Graphics/SVG/1.1/DTD/svg11.dtd">
<svg width="283pt" height="368pt" viewBox="0 0 283 368" version="1.1" xmlns="http://www.w3.org/2000/svg">
<g id="#ff0000ff">
<path fill="#ff0000" opacity="1.00" d=" M 0.00 0.00 L 281.34 0.00 C 237.88 114.81 193.85 229.41 150.20 344.16 C 147.34 352.11 143.78 359.83 141.56 368.00 L 141.05 368.00 C 126.79 331.74 113.20 295.21 99.21 258.84 C 68.51 178.21 37.66 97.64 6.99 17.00 C 5.09 11.79 3.36 6.43 0.00 1.94 L 0.00 0.00 M 140.82 11.13 C 140.50 116.75 140.82 222.38 140.66 328.00 C 140.63 331.38 140.75 334.76 141.10 338.13 C 143.80 332.34 145.94 326.30 148.32 320.37 C 153.81 305.35 160.06 290.64 165.57 275.63 C 168.69 266.22 173.15 257.32 175.70 247.71 C 185.90 221.55 195.88 195.29 206.21 169.17 C 210.67 157.52 214.99 145.82 218.99 134.02 C 223.82 122.35 228.06 110.45 232.66 98.69 C 240.21 81.18 246.06 63.00 253.49 45.44 C 258.12 34.17 261.45 22.44 265.99 11.14 C 224.27 11.10 182.54 11.12 140.82 11.13 Z" />
</g>
</svg>
