<?xml version="1.0" encoding="UTF-8" ?>
<!DOCTYPE svg PUBLIC "-//W3C//DTD SVG 1.1//EN" "http://www.w3.org/Graphics/SVG/1.1/DTD/svg11.dtd">
<svg width="512pt" height="512pt" viewBox="0 0 512 512" version="1.1" xmlns="http://www.w3.org/2000/svg">
<g id="#00ff00ff">
<path fill="#00ff00" opacity="1.00" d=" M 115.31 139.39 C 162.41 111.48 209.58 83.71 256.65 55.76 C 303.51 83.89 350.76 111.38 397.69 139.38 C 398.28 147.88 396.62 156.43 396.34 164.95 C 392.14 214.43 386.66 263.92 376.78 312.64 C 373.43 328.70 369.62 344.69 364.38 360.24 C 361.00 370.07 357.18 379.83 351.75 388.72 C 346.00 398.07 337.49 405.20 329.23 412.24 C 307.88 429.66 284.81 444.84 261.50 459.49 C 259.57 460.90 256.90 461.76 254.79 460.16 C 241.19 451.92 227.83 443.27 214.71 434.29 C 198.96 423.29 183.05 412.22 169.51 398.48 C 161.23 390.31 156.46 379.44 152.16 368.83 C 142.37 343.14 136.96 316.06 132.01 289.10 C 126.12 254.93 121.90 220.49 118.67 185.98 C 117.37 170.46 115.50 154.97 115.31 139.39 Z" />
</g>
</svg>
