<?xml version="1.0" encoding="UTF-8" ?>
<!DOCTYPE svg PUBLIC "-//W3C//DTD SVG 1.1//EN" "http://www.w3.org/Graphics/SVG/1.1/DTD/svg11.dtd">
<svg width="512pt" height="512pt" viewBox="0 0 512 512" version="1.1" xmlns="http://www.w3.org/2000/svg">
<g id="#ff0000ff">
<path fill="#ff0000" opacity="1.00" d=" M 244.62 63.64 C 246.31 60.28 247.76 56.77 249.94 53.67 C 252.17 57.10 253.68 60.91 255.51 64.55 C 273.01 100.03 290.53 135.50 307.98 171.00 C 309.18 173.43 310.18 176.00 311.83 178.18 C 314.66 179.55 317.93 179.45 320.98 179.96 C 359.02 185.49 397.09 190.88 435.11 196.60 C 439.85 197.33 444.73 197.40 449.32 198.89 C 446.92 201.95 443.93 204.46 441.17 207.17 C 411.48 236.13 381.83 265.14 352.10 294.05 C 351.40 294.76 350.78 295.53 350.24 296.36 C 350.19 298.76 350.75 301.12 351.15 303.48 C 355.76 330.66 360.51 357.82 365.12 385.00 C 367.73 401.60 371.10 418.10 373.55 434.71 C 371.71 433.45 369.92 432.11 367.98 431.01 C 329.35 410.66 290.67 390.38 252.07 369.99 C 250.80 369.16 249.36 369.31 248.12 370.10 C 213.85 388.16 179.56 406.18 145.29 424.24 C 138.96 427.66 132.34 430.58 126.46 434.76 C 126.44 433.34 126.51 431.92 126.69 430.52 C 134.37 387.37 141.41 344.12 149.05 300.96 C 149.29 299.43 149.58 297.89 149.50 296.33 C 147.29 293.30 144.27 290.99 141.66 288.34 C 117.20 264.47 92.72 240.62 68.28 216.72 C 62.27 210.55 55.54 205.04 50.04 198.40 C 95.89 191.88 141.74 185.15 187.54 178.38 C 188.37 177.53 188.95 176.48 189.52 175.45 C 207.88 138.17 226.26 100.91 244.62 63.64 M 250.04 76.76 C 249.87 78.50 249.78 80.24 249.75 81.99 C 249.76 173.01 249.78 264.03 249.75 355.04 C 249.76 356.23 249.92 357.41 250.22 358.57 C 257.86 361.23 264.71 365.61 271.94 369.16 C 290.86 379.29 309.93 389.11 328.91 399.13 C 339.25 404.45 349.35 410.31 359.92 415.16 C 358.48 403.23 355.74 391.51 354.19 379.59 C 350.64 361.32 348.13 342.87 344.51 324.62 C 343.70 318.28 342.61 311.98 341.29 305.73 C 340.59 301.42 339.31 296.91 340.62 292.59 C 341.40 289.99 343.65 288.29 345.50 286.47 C 373.34 259.52 400.92 232.30 428.78 205.37 C 423.13 205.09 417.54 204.18 411.98 203.20 C 379.89 198.63 347.83 193.86 315.73 189.35 C 311.47 188.64 306.47 188.06 303.77 184.23 C 300.23 179.11 298.22 173.13 295.20 167.72 C 283.14 142.86 270.70 118.19 258.57 93.37 C 255.80 87.80 253.51 81.95 250.04 76.76 Z" />
</g>
</svg>
