<?xml version="1.0" encoding="UTF-8" ?>
<!DOCTYPE svg PUBLIC "-//W3C//DTD SVG 1.1//EN" "http://www.w3.org/Graphics/SVG/1.1/DTD/svg11.dtd">
<svg width="512pt" height="512pt" viewBox="0 0 512 512" version="1.1" xmlns="http://www.w3.org/2000/svg">
<g id="#ff0000ff">
<path fill="#ff0000" opacity="1.00" d=" M 241.39 67.46 C 248.58 66.69 255.82 67.12 263.03 67.01 C 270.97 66.75 278.72 68.73 286.56 69.67 C 332.28 77.06 374.93 101.95 403.82 138.18 C 427.01 167.11 441.59 202.95 444.83 239.91 C 445.15 249.95 445.00 260.01 444.93 270.06 C 443.15 296.99 434.77 323.26 421.91 346.91 C 405.12 377.49 379.64 403.22 349.24 420.33 C 328.05 432.15 304.69 440.32 280.56 443.34 C 268.28 445.92 255.63 444.88 243.18 444.81 C 231.29 443.24 219.36 441.52 207.77 438.35 C 186.26 432.14 165.59 422.71 147.39 409.60 C 103.87 378.84 74.63 328.87 69.07 275.88 C 67.51 265.98 68.03 255.94 68.08 245.97 C 69.23 231.65 71.45 217.36 75.49 203.56 C 79.07 192.83 82.83 182.12 88.03 172.04 C 105.48 136.83 134.28 107.39 169.09 89.15 C 180.62 82.92 192.97 78.43 205.41 74.40 C 217.16 70.94 229.32 69.33 241.39 67.46 M 181.22 94.39 C 172.82 97.81 165.37 103.06 157.63 107.69 C 124.91 129.49 99.77 162.44 87.50 199.80 C 125.22 199.80 162.94 199.81 200.65 199.79 C 200.60 162.09 200.68 124.39 200.61 86.68 C 193.90 88.58 187.67 91.79 181.22 94.39 M 312.75 86.52 C 312.64 124.26 312.71 162.01 312.72 199.75 C 350.52 199.83 388.32 199.83 426.12 199.75 C 419.76 181.56 411.16 163.97 399.14 148.82 C 392.20 138.65 383.17 130.15 374.24 121.76 C 362.45 111.45 349.28 102.79 335.31 95.73 C 327.80 92.62 320.50 89.04 312.75 86.52 M 87.54 312.27 C 91.36 323.54 95.81 334.71 102.16 344.82 C 105.24 349.74 107.64 355.11 111.56 359.46 C 120.09 371.66 130.18 382.79 141.60 392.35 C 148.30 397.34 154.42 403.23 161.98 406.97 C 173.76 415.20 187.25 420.46 200.56 425.64 C 200.74 387.85 200.57 350.06 200.65 312.27 C 162.95 312.26 125.24 312.26 87.54 312.27 M 312.72 312.30 C 312.69 350.05 312.66 387.80 312.74 425.55 C 319.90 423.49 326.49 419.99 333.36 417.20 C 341.12 414.16 347.76 409.00 355.04 405.06 C 359.75 402.21 363.86 398.52 368.28 395.25 C 395.05 373.97 415.29 344.74 426.10 312.30 C 388.31 312.23 350.52 312.24 312.72 312.30 Z" />
</g>
</svg>
