<?xml version="1.0" encoding="UTF-8" ?>
<!DOCTYPE svg PUBLIC "-//W3C//DTD SVG 1.1//EN" "http://www.w3.org/Graphics/SVG/1.1/DTD/svg11.dtd">
<svg width="512pt" height="512pt" viewBox="0 0 512 512" version="1.1" xmlns="http://www.w3.org/2000/svg">
<g id="#ff0000ff">
<path fill="#ff0000" opacity="1.00" d=" M 120.14 85.29 C 137.94 85.37 155.75 85.27 173.55 85.34 C 173.73 103.11 173.21 120.88 173.79 138.64 C 191.07 138.61 208.36 138.64 225.64 138.62 C 225.83 120.86 225.35 103.08 225.86 85.32 C 245.33 85.30 264.79 85.34 284.26 85.30 C 284.84 103.06 284.36 120.84 284.48 138.61 C 301.85 138.64 319.22 138.63 336.58 138.61 C 336.74 120.85 336.26 103.08 336.81 85.32 C 355.42 85.32 374.03 85.31 392.64 85.33 C 392.78 123.22 392.63 161.11 392.71 199.00 C 393.00 205.33 393.50 211.65 393.31 218.00 C 393.29 252.00 393.30 286.00 393.30 320.00 C 393.95 346.86 388.23 374.25 374.60 397.59 C 354.73 432.47 318.68 457.69 278.98 463.92 C 271.65 464.91 264.47 467.19 257.00 466.85 C 249.19 467.25 241.67 464.88 234.00 463.86 C 202.72 458.77 173.58 442.07 153.08 417.93 C 141.58 404.43 132.71 388.66 127.23 371.78 C 124.09 362.43 122.55 352.65 120.88 342.96 C 120.10 338.35 120.02 333.66 120.00 329.00 C 120.01 270.67 120.00 212.33 120.01 154.00 C 120.10 131.10 119.82 108.19 120.14 85.29 M 130.04 97.04 C 130.00 132.78 129.97 168.52 130.05 204.26 C 205.03 204.47 280.02 204.29 355.00 204.35 C 364.23 204.26 373.46 204.57 382.69 204.16 C 382.71 168.48 382.66 132.79 382.71 97.11 C 370.82 96.91 358.93 97.02 347.05 97.04 C 346.94 109.71 347.06 122.39 347.06 135.06 C 346.95 138.10 346.93 141.44 345.10 144.03 C 342.55 147.41 338.16 148.92 334.04 148.74 C 319.01 148.52 303.98 148.65 288.95 148.66 C 284.74 148.61 280.05 148.18 276.84 145.15 C 274.14 142.56 274.04 138.55 273.95 135.06 C 273.95 122.39 274.06 109.71 273.96 97.04 C 261.32 96.99 248.69 96.99 236.05 97.04 C 235.95 109.72 236.07 122.39 236.06 135.06 C 235.97 138.55 235.86 142.56 233.16 145.15 C 229.97 148.23 225.25 148.60 221.05 148.66 C 206.68 148.61 192.31 148.61 177.95 148.66 C 174.01 148.60 169.61 148.24 166.60 145.39 C 163.73 142.38 163.62 137.91 163.51 134.01 C 163.57 121.72 163.51 109.43 163.60 97.14 C 152.41 96.88 141.22 97.03 130.04 97.04 M 131.88 346.64 C 133.33 361.19 138.96 374.85 144.91 388.06 C 152.93 402.66 163.38 416.10 176.26 426.73 C 188.78 436.35 202.33 445.40 217.85 449.24 C 225.55 451.57 233.35 453.79 241.39 454.56 C 252.00 455.45 262.70 455.49 273.30 454.37 C 282.44 453.41 291.24 450.64 300.01 448.02 C 313.81 443.47 326.10 435.37 337.45 426.46 C 348.66 416.90 358.26 405.46 365.79 392.80 C 369.15 387.75 370.89 381.90 373.36 376.41 C 377.47 366.93 380.35 356.89 381.44 346.61 C 327.30 346.29 273.14 346.56 219.00 346.47 C 189.96 346.59 160.91 346.24 131.88 346.64 Z" />
</g>
</svg>
