<?xml version="1.0" encoding="UTF-8" ?>
<!DOCTYPE svg PUBLIC "-//W3C//DTD SVG 1.1//EN" "http://www.w3.org/Graphics/SVG/1.1/DTD/svg11.dtd">
<svg width="512pt" height="512pt" viewBox="0 0 512 512" version="1.1" xmlns="http://www.w3.org/2000/svg">
<g id="#ff0000ff">
<path fill="#ff0000" opacity="1.00" d=" M 117.40 84.19 C 135.36 83.87 153.35 84.06 171.32 84.09 C 171.73 101.72 171.35 119.38 171.47 137.02 C 183.63 137.77 195.82 137.13 208.00 137.34 C 213.55 137.36 219.12 137.51 224.67 137.06 C 224.86 119.40 224.46 101.74 224.83 84.09 C 244.95 83.94 265.07 83.94 285.19 84.09 C 285.56 101.73 285.17 119.38 285.35 137.02 C 291.88 137.62 298.45 137.28 305.00 137.34 C 316.09 137.24 327.19 137.55 338.29 137.20 C 338.68 119.54 338.33 101.86 338.42 84.19 C 357.66 83.92 376.92 83.96 396.16 84.17 C 396.52 166.44 396.18 248.72 396.33 331.00 C 396.27 350.74 387.79 369.51 375.95 384.97 C 358.01 408.42 334.37 426.77 309.81 442.82 C 293.49 453.17 276.92 463.26 259.33 471.32 C 256.26 472.84 253.08 471.03 250.32 469.71 C 230.87 460.10 212.28 448.82 194.29 436.71 C 177.97 425.34 162.22 412.96 148.65 398.36 C 132.30 380.76 117.78 358.88 117.40 334.05 C 117.41 250.77 117.42 167.48 117.40 84.19 M 127.40 94.19 C 127.43 170.46 127.40 246.73 127.41 323.00 C 127.47 330.76 126.86 338.67 128.88 346.27 C 131.96 358.33 138.06 369.51 145.86 379.16 C 153.57 389.62 162.75 398.92 172.58 407.39 C 188.69 420.34 205.08 433.14 223.26 443.11 C 223.65 426.41 223.30 409.70 223.42 393.00 C 223.42 341.33 223.42 289.67 223.42 238.00 C 223.31 208.03 223.63 178.05 223.27 148.08 C 207.15 147.87 191.03 148.09 174.92 148.02 C 171.47 148.00 167.77 147.32 165.23 144.79 C 162.21 142.12 161.53 137.87 161.46 134.04 C 161.34 120.73 161.74 107.41 161.31 94.10 C 150.01 94.03 138.70 93.89 127.40 94.19 M 348.43 94.20 C 348.43 107.14 348.45 120.07 348.49 133.00 C 348.42 137.12 348.07 141.86 344.77 144.78 C 342.23 147.32 338.53 148.00 335.08 148.02 C 319.05 148.10 303.01 147.85 286.98 148.09 C 286.71 221.06 286.94 294.03 286.87 367.00 C 286.97 392.86 286.66 418.72 287.01 444.57 C 292.98 441.98 298.33 438.26 303.83 434.84 C 314.55 427.71 325.07 420.23 334.94 411.94 C 346.84 402.97 357.37 392.26 366.45 380.46 C 374.91 370.34 381.47 358.47 384.57 345.60 C 386.12 339.18 385.88 332.55 385.85 326.00 C 385.81 248.71 385.90 171.42 385.81 94.13 C 373.35 94.02 360.88 93.88 348.43 94.20 Z" />
</g>
</svg>
