<?xml version="1.0" encoding="UTF-8" ?>
<!DOCTYPE svg PUBLIC "-//W3C//DTD SVG 1.1//EN" "http://www.w3.org/Graphics/SVG/1.1/DTD/svg11.dtd">
<svg width="512pt" height="512pt" viewBox="0 0 512 512" version="1.1" xmlns="http://www.w3.org/2000/svg">
<g id="#ff0000ff">
<path fill="#ff0000" opacity="1.00" d=" M 132.03 77.03 C 160.02 76.77 188.01 77.36 216.00 77.26 C 238.33 76.75 260.67 77.13 283.00 77.00 C 315.99 77.74 348.98 76.68 381.98 77.02 C 382.01 182.35 381.98 287.68 381.99 393.00 C 381.86 408.50 382.27 424.00 381.79 439.49 C 353.05 418.58 324.98 396.76 296.41 375.60 C 283.01 366.28 270.23 356.11 256.98 346.57 C 247.97 353.00 239.21 359.75 230.31 366.33 C 197.21 390.17 165.15 415.42 132.20 439.47 C 131.75 406.99 132.14 374.49 132.01 342.00 C 132.02 253.68 131.99 165.35 132.03 77.03 M 181.72 88.08 C 181.51 158.05 181.69 228.02 181.63 298.00 C 181.74 328.44 181.39 358.90 181.80 389.34 C 195.06 380.58 207.05 370.06 220.10 361.00 C 221.95 359.99 222.86 358.11 222.66 356.03 C 222.65 266.73 222.61 177.42 222.68 88.12 C 209.02 87.95 195.37 88.03 181.72 88.08 M 291.76 88.10 C 291.54 177.09 291.79 266.07 291.64 355.06 C 291.84 356.72 291.39 358.86 292.78 360.12 C 296.02 362.96 299.77 365.15 303.16 367.81 C 313.07 374.90 322.09 383.25 332.59 389.47 C 332.87 289.02 332.60 188.57 332.73 88.12 C 319.07 87.98 305.42 88.00 291.76 88.10 Z" />
</g>
</svg>
