<?xml version="1.0" encoding="UTF-8" ?>
<!DOCTYPE svg PUBLIC "-//W3C//DTD SVG 1.1//EN" "http://www.w3.org/Graphics/SVG/1.1/DTD/svg11.dtd">
<svg width="512pt" height="512pt" viewBox="0 0 512 512" version="1.1" xmlns="http://www.w3.org/2000/svg">
<g id="#00ff00ff">
<path fill="#00ff00" opacity="1.00" d=" M 251.16 60.12 C 252.98 58.92 254.72 57.60 256.32 56.11 C 257.69 57.27 259.14 58.35 260.64 59.34 C 305.60 88.95 350.70 118.34 395.61 148.02 C 385.22 231.91 374.96 315.83 364.53 399.72 C 345.18 410.04 325.61 419.97 306.19 430.18 C 289.92 438.86 273.24 446.81 257.26 456.04 C 253.95 453.38 250.10 451.57 246.39 449.57 C 225.35 438.30 204.32 427.02 183.29 415.75 C 173.42 410.31 163.29 405.33 153.58 399.62 C 141.41 315.88 129.49 232.09 117.35 148.35 C 117.79 147.55 118.66 147.12 119.36 146.58 C 163.31 117.79 207.21 88.92 251.16 60.12 Z" />
</g>
</svg>
