<?xml version="1.0" encoding="UTF-8" ?>
<!DOCTYPE svg PUBLIC "-//W3C//DTD SVG 1.1//EN" "http://www.w3.org/Graphics/SVG/1.1/DTD/svg11.dtd">
<svg width="512pt" height="512pt" viewBox="0 0 512 512" version="1.1" xmlns="http://www.w3.org/2000/svg">
<g id="#00ff00ff">
<path fill="#00ff00" opacity="1.00" d=" M 246.34 54.21 C 264.83 51.72 283.84 56.62 299.59 66.40 C 321.82 80.26 338.38 101.66 350.43 124.61 C 368.08 158.46 377.14 196.34 379.95 234.26 C 380.46 238.83 381.76 243.29 381.82 247.91 C 381.98 254.96 381.93 262.02 381.85 269.08 C 381.90 274.76 380.18 280.23 379.75 285.86 C 377.52 315.66 371.05 345.21 359.96 372.97 C 348.95 399.95 333.16 425.79 310.22 444.23 C 294.48 457.01 274.47 465.18 254.00 464.46 C 232.68 464.13 212.51 454.21 196.89 440.12 C 173.66 419.32 158.27 391.19 147.94 362.10 C 139.38 337.53 134.16 311.80 132.25 285.86 C 131.68 279.56 129.84 273.40 130.11 267.03 C 130.31 257.65 129.34 248.13 131.35 238.88 C 132.61 232.04 132.64 225.05 133.57 218.17 C 138.32 180.94 149.05 143.94 168.85 111.83 C 182.14 90.73 199.83 71.34 222.85 60.86 C 230.32 57.57 238.22 55.16 246.34 54.21 Z" />
</g>
</svg>
