<?xml version="1.0" encoding="UTF-8" ?>
<!DOCTYPE svg PUBLIC "-//W3C//DTD SVG 1.1//EN" "http://www.w3.org/Graphics/SVG/1.1/DTD/svg11.dtd">
<svg width="512pt" height="512pt" viewBox="0 0 512 512" version="1.1" xmlns="http://www.w3.org/2000/svg">
<g id="#ff0000ff">
<path fill="#ff0000" opacity="1.00" d=" M 211.00 75.36 C 241.66 74.79 272.34 74.83 303.01 75.36 C 327.59 75.43 352.18 75.15 376.76 75.50 C 376.83 128.66 376.55 181.84 376.94 235.00 C 376.84 302.99 376.63 370.98 376.78 438.97 C 296.26 439.02 215.74 439.02 135.22 438.97 C 135.29 403.65 135.23 368.32 135.25 333.00 C 135.36 294.00 134.62 255.00 135.25 216.00 C 135.24 169.16 135.26 122.33 135.24 75.49 C 160.49 75.16 185.74 75.43 211.00 75.36 M 145.23 86.10 C 145.29 131.47 145.22 176.84 145.27 222.21 C 170.75 222.39 196.24 222.40 221.73 222.21 C 221.73 176.85 221.71 131.48 221.73 86.12 C 196.23 86.03 170.73 86.07 145.23 86.10 M 291.39 86.14 C 291.45 131.49 291.44 176.83 291.40 222.18 C 316.51 222.44 341.62 222.38 366.73 222.21 C 366.78 176.84 366.71 131.47 366.77 86.10 C 341.64 86.08 316.52 86.00 291.39 86.14 M 145.28 291.87 C 145.20 337.56 145.29 383.26 145.24 428.95 C 170.74 429.02 196.24 429.04 221.74 428.94 C 221.69 383.25 221.75 337.55 221.71 291.86 C 196.24 291.69 170.76 291.67 145.28 291.87 M 291.41 291.95 C 291.43 337.61 291.47 383.26 291.39 428.92 C 316.51 429.07 341.64 429.01 366.76 428.95 C 366.71 383.26 366.80 337.56 366.72 291.86 C 341.62 291.73 316.51 291.57 291.41 291.95 Z" />
</g>
</svg>
