<?xml version="1.0" encoding="UTF-8" ?>
<!DOCTYPE svg PUBLIC "-//W3C//DTD SVG 1.1//EN" "http://www.w3.org/Graphics/SVG/1.1/DTD/svg11.dtd">
<svg width="283pt" height="369pt" viewBox="0 0 283 369" version="1.1" xmlns="http://www.w3.org/2000/svg">
<g id="#ff0000ff">
<path fill="#ff0000" opacity="1.00" d=" M 0.85 0.00 L 281.30 0.00 C 254.51 71.42 226.92 142.54 199.93 213.89 C 193.39 230.75 187.03 247.69 180.53 264.56 C 178.67 269.23 177.96 274.26 176.13 278.94 C 167.14 302.10 158.39 325.35 149.52 348.56 C 147.02 355.33 143.89 361.90 142.38 369.00 L 141.48 369.00 C 129.34 336.44 116.61 304.10 104.44 271.56 C 69.99 181.01 35.46 90.49 0.85 0.00 M 16.26 11.12 C 18.01 15.33 19.72 19.55 21.12 23.89 C 24.97 35.96 29.70 47.73 34.57 59.42 C 41.46 79.18 49.89 98.34 57.08 117.98 C 65.39 138.34 71.89 159.39 80.36 179.70 C 88.86 201.28 96.65 223.17 105.82 244.48 C 106.07 241.65 106.16 238.83 106.14 236.00 C 105.99 161.05 106.29 86.09 105.99 11.14 C 76.08 11.09 46.17 11.14 16.26 11.12 M 177.98 11.14 C 177.66 84.42 177.97 157.71 177.83 231.00 C 177.81 234.08 177.88 237.17 178.11 240.25 C 181.58 234.20 183.31 227.40 185.99 221.01 C 191.11 208.64 195.57 196.00 200.49 183.55 C 205.88 170.67 210.56 157.52 215.42 144.43 C 219.89 130.64 225.88 117.39 230.68 103.71 C 236.60 89.14 242.47 74.54 247.68 59.70 C 249.66 54.42 252.11 49.32 254.03 44.02 C 258.42 33.21 261.63 21.98 265.97 11.15 C 236.64 11.10 207.31 11.11 177.98 11.14 Z" />
</g>
</svg>
