<?xml version="1.0" encoding="UTF-8" ?>
<!DOCTYPE svg PUBLIC "-//W3C//DTD SVG 1.1//EN" "http://www.w3.org/Graphics/SVG/1.1/DTD/svg11.dtd">
<svg width="512pt" height="512pt" viewBox="0 0 512 512" version="1.1" xmlns="http://www.w3.org/2000/svg">
<g id="#00ff00ff">
<path fill="#00ff00" opacity="1.00" d=" M 241.43 67.88 C 253.98 66.72 266.72 66.84 279.19 68.85 C 314.49 73.04 348.50 87.49 375.97 110.06 C 404.01 132.99 425.40 164.08 436.28 198.68 C 441.77 216.22 445.23 234.58 445.01 253.01 C 446.08 288.80 435.87 324.67 417.14 355.10 C 399.55 383.53 374.32 407.21 344.73 422.79 C 324.21 433.73 301.60 440.56 278.54 443.37 C 267.13 445.32 255.50 445.02 243.99 444.53 C 229.44 442.84 214.87 440.60 200.89 436.11 C 173.82 427.82 148.82 413.13 128.12 393.86 C 102.41 369.82 83.49 338.50 74.60 304.41 C 65.34 270.05 66.26 233.10 77.06 199.21 C 88.52 162.49 111.74 129.63 142.28 106.29 C 162.44 90.82 185.76 79.54 210.39 73.32 C 220.56 70.61 231.02 69.28 241.43 67.88 Z" />
</g>
</svg>
