<?xml version="1.0" encoding="UTF-8" ?>
<!DOCTYPE svg PUBLIC "-//W3C//DTD SVG 1.1//EN" "http://www.w3.org/Graphics/SVG/1.1/DTD/svg11.dtd">
<svg width="512pt" height="512pt" viewBox="0 0 512 512" version="1.1" xmlns="http://www.w3.org/2000/svg">
<g id="#ff0000ff">
<path fill="#ff0000" opacity="1.00" d=" M 240.80 68.00 C 245.81 67.07 250.93 67.31 256.00 67.24 C 264.47 67.34 273.03 66.95 281.34 68.88 C 317.12 73.53 351.41 88.74 378.85 112.18 C 417.23 144.56 441.87 192.78 444.96 242.95 C 444.77 256.26 445.88 269.69 443.54 282.86 C 438.27 320.53 421.13 356.39 395.22 384.22 C 365.71 416.36 324.71 437.66 281.41 443.22 C 270.77 445.79 259.77 444.79 248.93 444.95 C 243.11 445.16 237.49 443.54 231.76 442.89 C 196.04 438.25 161.82 422.94 134.49 399.50 C 107.17 376.29 86.69 345.10 76.39 310.76 C 68.51 284.57 66.09 256.64 70.18 229.56 C 75.11 193.81 90.73 159.64 114.47 132.47 C 137.13 106.27 167.17 86.47 200.27 76.21 C 213.41 71.89 227.10 69.64 240.80 68.00 M 212.90 83.04 C 202.12 85.27 192.00 89.74 181.95 94.10 C 173.26 97.51 165.59 102.92 157.63 107.69 C 136.86 121.50 119.20 139.85 105.85 160.89 C 101.70 168.11 97.12 175.13 94.09 182.93 C 89.90 192.51 86.09 202.31 83.60 212.48 C 81.33 224.86 78.66 237.27 78.89 249.92 C 77.37 255.95 79.34 261.96 79.06 268.04 C 79.26 278.41 81.74 288.55 83.43 298.74 C 85.87 309.47 90.10 319.66 94.25 329.81 C 97.75 338.20 102.91 345.73 107.29 353.66 C 108.88 356.35 111.02 358.65 112.85 361.18 C 124.63 378.15 140.10 392.25 156.94 404.09 C 164.19 408.04 170.79 413.13 178.42 416.42 C 184.74 418.94 190.74 422.26 197.29 424.22 C 188.06 416.21 179.65 407.08 173.79 396.27 C 166.31 382.81 161.96 367.44 161.99 352.00 C 161.18 328.33 170.34 304.68 186.16 287.15 C 200.41 271.40 220.11 260.55 241.16 257.38 C 247.12 256.37 253.19 256.43 259.15 255.46 C 273.75 254.97 288.24 251.13 301.05 244.09 C 319.47 234.11 334.33 217.78 342.57 198.52 C 349.93 181.38 352.12 162.02 348.52 143.70 C 344.57 122.38 332.87 102.62 316.14 88.84 C 312.32 85.56 307.18 84.78 302.48 83.46 C 291.70 81.58 281.05 78.69 270.08 78.18 C 263.05 77.94 256.02 78.01 248.99 78.05 C 236.78 77.97 224.81 80.72 212.90 83.04 Z" />
</g>
</svg>
