<?xml version="1.0" encoding="UTF-8" ?>
<!DOCTYPE svg PUBLIC "-//W3C//DTD SVG 1.1//EN" "http://www.w3.org/Graphics/SVG/1.1/DTD/svg11.dtd">
<svg width="512pt" height="512pt" viewBox="0 0 512 512" version="1.1" xmlns="http://www.w3.org/2000/svg">
<g id="#ff0000ff">
<path fill="#ff0000" opacity="1.00" d=" M 132.37 77.30 C 164.58 77.08 196.80 77.55 229.00 77.00 C 279.95 76.91 330.89 77.45 381.84 77.25 C 381.82 156.83 381.84 236.41 381.83 316.00 C 381.72 357.11 382.04 398.24 381.67 439.34 C 354.11 418.54 326.33 398.03 298.71 377.30 C 284.54 367.38 270.91 356.72 256.96 346.48 C 242.83 356.83 229.01 367.60 214.69 377.68 C 187.32 398.23 159.73 418.49 132.49 439.22 C 132.23 318.58 132.47 197.94 132.37 77.30 M 143.08 88.03 C 143.10 198.09 143.12 308.15 143.08 418.20 C 157.99 408.28 171.43 396.31 186.34 386.37 C 197.46 378.02 208.52 369.61 219.50 361.09 C 219.45 270.07 219.52 179.06 219.46 88.04 C 194.00 88.03 168.54 88.05 143.08 88.03 M 294.43 88.04 C 294.38 178.70 294.40 269.37 294.42 360.04 C 294.21 361.88 296.31 362.57 297.43 363.59 C 309.68 372.26 320.99 382.20 333.56 390.41 C 346.45 399.72 358.47 410.21 371.84 418.86 C 371.82 308.59 371.81 198.31 371.85 88.04 C 346.04 88.03 320.24 88.05 294.43 88.04 Z" />
</g>
</svg>
