<?xml version="1.0" encoding="UTF-8" ?>
<!DOCTYPE svg PUBLIC "-//W3C//DTD SVG 1.1//EN" "http://www.w3.org/Graphics/SVG/1.1/DTD/svg11.dtd">
<svg width="512pt" height="512pt" viewBox="0 0 512 512" version="1.1" xmlns="http://www.w3.org/2000/svg">
<g id="#ff0000ff">
<path fill="#ff0000" opacity="1.00" d=" M 119.08 85.15 C 169.38 85.29 219.70 84.88 270.00 85.42 C 310.78 85.36 351.56 85.51 392.33 85.35 C 392.67 167.23 392.35 249.12 392.49 331.00 C 392.41 368.35 375.97 405.21 348.38 430.37 C 328.37 448.84 302.72 461.12 275.75 464.94 C 262.83 467.14 249.50 467.82 236.58 465.29 C 205.96 460.85 176.96 445.79 155.97 423.02 C 132.06 397.62 118.79 362.81 119.02 328.00 C 119.08 247.05 118.97 166.10 119.08 85.15 M 255.81 96.11 C 255.76 216.08 255.79 336.05 255.80 456.02 C 272.85 456.48 289.58 452.28 305.45 446.39 C 331.73 435.03 353.91 414.64 367.57 389.50 C 376.51 371.66 382.33 352.06 382.48 332.00 C 382.43 253.36 382.52 174.73 382.43 96.09 C 340.23 96.15 298.02 96.11 255.81 96.11 Z" />
</g>
</svg>
