<?xml version="1.0" encoding="UTF-8" ?>
<!DOCTYPE svg PUBLIC "-//W3C//DTD SVG 1.1//EN" "http://www.w3.org/Graphics/SVG/1.1/DTD/svg11.dtd">
<svg width="512pt" height="512pt" viewBox="0 0 512 512" version="1.1" xmlns="http://www.w3.org/2000/svg">
<g id="#ff0000ff">
<path fill="#ff0000" opacity="1.00" d=" M 240.48 72.54 C 243.63 66.23 246.45 59.74 250.01 53.65 C 269.23 91.98 287.98 130.55 307.01 168.98 C 308.58 172.06 309.76 175.38 311.85 178.16 C 314.67 179.54 317.94 179.45 320.98 179.96 C 354.30 184.76 387.60 189.61 420.91 194.45 C 430.57 196.14 440.38 196.94 450.00 198.89 C 416.72 231.31 383.41 263.71 350.26 296.26 C 357.48 342.50 365.92 388.54 373.61 434.70 C 369.60 431.72 365.16 429.45 360.72 427.21 C 324.72 408.20 288.65 389.33 252.66 370.30 C 250.98 369.18 249.01 369.17 247.32 370.28 C 211.10 389.39 174.84 408.44 138.61 427.52 C 134.38 429.65 130.17 431.87 126.37 434.72 C 126.91 428.63 128.46 422.71 129.46 416.70 C 136.05 376.53 143.47 336.50 149.69 296.27 C 117.40 264.56 84.92 233.02 52.53 201.40 C 51.67 200.49 50.85 199.56 50.03 198.62 C 95.12 192.30 140.14 185.41 185.25 179.10 C 188.38 179.13 189.51 176.00 190.70 173.68 C 207.12 139.88 223.90 106.26 240.48 72.54 M 240.98 93.98 C 227.46 122.00 213.34 149.72 199.82 177.74 C 197.99 181.09 196.50 185.05 193.01 187.03 C 188.96 189.03 184.33 189.24 179.94 189.98 C 159.53 192.52 139.27 196.16 118.84 198.57 C 124.19 199.39 129.61 199.11 135.00 199.13 C 211.67 199.13 288.33 199.13 365.00 199.13 C 370.40 199.13 375.84 199.36 381.20 198.56 C 359.89 195.99 338.70 192.39 317.41 189.61 C 312.64 188.77 306.88 188.52 303.77 184.23 C 300.23 179.11 298.21 173.14 295.19 167.72 C 283.67 143.98 271.84 120.39 260.19 96.72 C 256.83 89.92 253.87 82.91 249.99 76.37 C 246.46 81.97 244.18 88.21 240.98 93.98 M 156.90 315.83 C 153.81 332.60 150.93 349.42 148.22 366.26 C 145.26 382.57 142.49 398.91 139.89 415.28 C 157.75 406.61 175.03 396.76 192.73 387.77 C 209.95 378.63 227.24 369.60 244.50 360.52 C 248.11 358.46 252.53 358.77 256.08 360.82 C 279.65 373.34 303.32 385.68 326.94 398.11 C 337.97 403.79 348.77 409.92 359.96 415.27 C 356.32 391.44 351.96 367.73 347.95 343.97 C 346.83 334.62 344.12 325.53 343.47 316.11 C 333.33 315.41 323.15 315.99 313.00 315.81 C 260.97 315.82 208.93 315.78 156.90 315.83 Z" />
</g>
</svg>
