<?xml version="1.0" encoding="UTF-8" ?>
<!DOCTYPE svg PUBLIC "-//W3C//DTD SVG 1.1//EN" "http://www.w3.org/Graphics/SVG/1.1/DTD/svg11.dtd">
<svg width="512pt" height="512pt" viewBox="0 0 512 512" version="1.1" xmlns="http://www.w3.org/2000/svg">
<g id="#ff0000ff">
<path fill="#ff0000" opacity="1.00" d=" M 190.96 75.31 C 205.30 74.73 219.65 75.11 234.00 75.00 C 265.33 75.12 296.68 74.69 328.00 75.35 C 344.24 75.43 360.49 75.13 376.73 75.49 C 376.79 196.64 376.74 317.79 376.75 438.94 C 296.25 439.04 215.75 439.04 135.25 438.94 C 135.26 317.79 135.21 196.64 135.27 75.49 C 153.83 75.10 172.40 75.49 190.96 75.31 M 145.26 86.13 C 145.24 200.39 145.23 314.66 145.27 428.92 C 161.90 429.06 178.54 429.04 195.17 428.93 C 195.37 410.95 195.19 392.98 195.25 375.00 C 195.19 278.71 195.37 182.42 195.16 86.14 C 178.53 86.02 161.90 86.04 145.26 86.13 M 316.88 86.14 C 316.66 131.42 316.85 176.71 316.79 222.00 C 316.84 290.98 316.68 359.95 316.87 428.93 C 333.49 429.04 350.11 429.06 366.73 428.92 C 366.77 314.66 366.76 200.39 366.74 86.13 C 350.12 86.04 333.50 86.02 316.88 86.14 Z" />
</g>
</svg>
