<?xml version="1.0" encoding="UTF-8" ?>
<!DOCTYPE svg PUBLIC "-//W3C//DTD SVG 1.1//EN" "http://www.w3.org/Graphics/SVG/1.1/DTD/svg11.dtd">
<svg width="512pt" height="512pt" viewBox="0 0 512 512" version="1.1" xmlns="http://www.w3.org/2000/svg">
<g id="#ff0000ff">
<path fill="#ff0000" opacity="1.00" d=" M 250.35 53.21 C 264.72 52.06 279.11 55.90 292.04 61.96 C 312.39 72.64 328.79 89.66 341.20 108.80 C 346.40 115.92 350.39 123.80 354.25 131.71 C 369.35 163.35 377.51 198.04 380.12 232.92 C 380.49 236.96 381.93 240.83 381.79 244.93 C 381.95 255.87 382.28 266.86 381.45 277.78 C 379.63 284.71 379.83 291.92 378.81 298.98 C 375.50 326.62 368.67 353.93 357.45 379.45 C 352.80 389.75 347.86 400.01 341.27 409.23 C 328.85 428.39 312.45 445.45 292.08 456.13 C 278.49 462.64 263.19 466.32 248.09 464.59 C 239.08 463.33 230.20 460.91 221.93 457.08 C 202.15 447.34 185.96 431.46 173.55 413.42 C 168.50 406.88 164.47 399.64 160.68 392.33 C 144.80 361.36 135.92 327.12 132.49 292.58 C 132.19 287.61 131.76 282.63 130.55 277.78 C 129.71 266.86 130.06 255.87 130.21 244.93 C 130.06 240.83 131.51 236.96 131.88 232.92 C 134.70 195.34 143.94 157.91 161.42 124.38 C 166.77 113.56 173.90 103.79 181.33 94.33 C 192.42 80.63 206.11 68.84 221.97 61.01 C 230.93 56.92 240.58 54.38 250.35 53.21 M 194.68 91.66 C 185.81 100.72 178.37 111.12 172.30 122.23 C 171.22 123.94 171.40 126.00 171.37 127.92 C 171.51 216.51 171.23 305.12 171.51 393.70 C 176.89 406.00 185.77 416.45 194.50 426.52 C 201.23 434.13 209.38 440.40 218.13 445.52 C 218.23 321.19 218.23 196.86 218.13 72.54 C 209.45 77.71 201.21 83.90 194.68 91.66 M 296.64 74.23 C 296.58 197.42 296.59 320.62 296.64 443.81 C 305.35 438.44 313.35 431.80 319.78 423.81 C 328.52 414.24 335.89 403.46 341.88 391.99 C 342.81 389.80 343.49 387.45 343.43 385.06 C 343.40 301.02 343.41 216.98 343.42 132.94 C 343.48 129.56 341.93 126.44 340.49 123.48 C 336.51 116.60 332.48 109.72 327.53 103.48 C 318.72 92.32 308.93 81.63 296.64 74.23 Z" />
</g>
</svg>
