<?xml version="1.0" encoding="UTF-8" ?>
<!DOCTYPE svg PUBLIC "-//W3C//DTD SVG 1.1//EN" "http://www.w3.org/Graphics/SVG/1.1/DTD/svg11.dtd">
<svg width="512pt" height="512pt" viewBox="0 0 512 512" version="1.1" xmlns="http://www.w3.org/2000/svg">
<g id="#ff0000ff">
<path fill="#ff0000" opacity="1.00" d=" M 257.39 53.26 C 259.06 53.06 260.76 53.08 262.44 53.27 C 272.41 54.63 282.27 57.27 291.36 61.64 C 305.19 68.27 317.12 78.37 327.16 89.87 C 338.71 102.94 347.91 117.94 355.20 133.75 C 367.94 160.97 375.46 190.44 378.94 220.23 C 379.74 225.76 379.65 231.38 380.69 236.88 C 382.18 242.46 381.83 248.29 381.95 254.01 C 381.68 263.69 382.70 273.56 380.03 283.00 C 377.38 319.51 368.98 355.95 352.80 388.92 C 343.76 407.14 332.16 424.31 317.20 438.21 C 303.98 450.62 287.62 460.19 269.60 463.35 C 263.76 464.12 257.87 464.86 251.98 464.93 C 233.81 463.57 216.31 456.20 202.14 444.84 C 180.77 427.79 165.40 404.30 154.55 379.44 C 142.56 352.21 135.61 322.94 132.56 293.40 C 132.21 288.16 131.84 282.90 130.55 277.80 C 129.68 267.20 130.14 256.55 130.23 245.93 C 130.06 242.18 131.45 238.66 131.99 235.00 C 134.30 202.76 141.18 170.66 153.85 140.85 C 163.56 118.24 176.72 96.69 194.87 79.86 C 208.06 67.43 224.44 57.96 242.42 54.75 C 247.37 53.92 252.40 53.76 257.39 53.26 M 239.09 64.24 C 221.89 68.39 206.29 78.42 194.67 91.67 C 185.12 101.41 177.27 112.74 170.90 124.79 C 168.28 131.04 164.70 136.84 162.26 143.17 C 161.03 146.25 158.96 148.90 157.86 152.04 C 146.48 182.66 140.58 215.25 139.86 247.86 C 138.72 251.38 137.61 254.89 138.11 258.66 C 177.71 258.69 217.31 258.61 256.91 258.70 C 257.55 246.82 257.01 234.90 257.18 223.00 C 257.16 169.36 257.23 115.72 257.15 62.07 C 251.04 61.62 245.10 63.47 239.09 64.24 M 257.18 258.64 C 257.20 324.45 257.15 390.26 257.21 456.07 C 266.88 455.39 276.67 453.69 285.55 449.63 C 298.98 443.77 311.00 434.63 320.25 423.27 C 330.07 412.31 338.46 399.95 344.36 386.45 C 347.50 380.16 349.89 373.53 353.54 367.50 C 365.39 336.48 371.47 303.29 372.14 270.13 C 373.41 266.43 374.38 262.68 373.89 258.71 C 334.99 258.59 296.09 258.71 257.18 258.64 Z" />
</g>
</svg>
