<?xml version="1.0" encoding="UTF-8" ?>
<!DOCTYPE svg PUBLIC "-//W3C//DTD SVG 1.1//EN" "http://www.w3.org/Graphics/SVG/1.1/DTD/svg11.dtd">
<svg width="512pt" height="512pt" viewBox="0 0 512 512" version="1.1" xmlns="http://www.w3.org/2000/svg">
<g id="#ff0000ff">
<path fill="#ff0000" opacity="1.00" d=" M 240.38 67.55 C 244.89 66.91 249.46 67.02 254.00 67.01 C 261.57 67.06 269.22 66.65 276.67 68.28 C 306.82 72.05 336.41 82.22 361.63 99.35 C 402.79 126.76 432.32 170.95 441.66 219.54 C 443.76 230.56 445.29 241.75 445.00 253.00 C 446.06 288.06 436.28 323.21 418.28 353.24 C 400.64 382.75 374.65 407.15 344.25 423.17 C 323.58 433.89 300.94 440.64 277.89 443.71 C 270.70 445.32 263.30 444.95 255.99 444.99 C 249.02 444.96 241.96 445.29 235.11 443.74 C 212.77 440.77 191.07 433.82 170.70 424.29 C 146.45 411.93 124.97 394.25 108.07 372.92 C 105.58 370.23 104.29 366.75 102.15 363.83 C 83.16 336.89 71.79 304.81 68.91 272.02 C 65.15 228.57 77.06 183.87 102.21 148.20 C 104.33 145.26 105.64 141.80 108.13 139.12 C 125.50 117.24 147.66 99.19 172.71 86.82 C 186.90 80.59 201.49 75.08 216.67 71.80 C 224.42 69.57 232.49 69.03 240.38 67.55 M 177.70 95.94 C 177.65 202.65 177.66 309.37 177.69 416.08 C 191.47 422.18 205.43 428.72 220.61 430.25 C 220.58 314.05 220.63 197.85 220.58 81.64 C 205.47 83.55 191.50 89.89 177.70 95.94 M 292.68 81.65 C 292.61 197.96 292.63 314.26 292.66 430.57 C 307.73 428.53 321.76 422.50 335.46 416.23 C 335.52 309.41 335.56 202.59 335.45 95.77 C 321.67 89.77 307.75 83.49 292.68 81.65 M 83.77 211.73 C 81.69 223.42 78.86 235.12 79.02 247.07 C 79.13 250.95 77.72 254.77 78.43 258.65 C 79.53 264.48 78.60 270.46 79.67 276.30 C 80.57 283.84 82.14 291.26 83.43 298.74 C 85.80 309.22 89.93 319.19 93.96 329.13 C 97.02 336.19 100.71 342.99 105.09 349.32 C 105.35 330.55 105.13 311.78 105.20 293.00 C 105.13 249.57 105.35 206.12 105.09 162.69 C 95.08 177.55 88.65 194.58 83.77 211.73 M 408.91 163.09 C 408.67 172.06 408.86 181.03 408.80 190.00 C 408.87 242.97 408.66 295.95 408.91 348.92 C 417.00 336.46 422.70 322.60 427.40 308.55 C 430.25 297.52 432.70 286.31 433.91 274.98 C 435.91 259.73 435.23 244.23 432.91 229.06 C 430.41 215.67 428.09 202.05 422.20 189.65 C 418.72 180.36 414.33 171.41 408.91 163.09 Z" />
</g>
</svg>
