<?xml version="1.0" encoding="UTF-8" ?>
<!DOCTYPE svg PUBLIC "-//W3C//DTD SVG 1.1//EN" "http://www.w3.org/Graphics/SVG/1.1/DTD/svg11.dtd">
<svg width="512pt" height="512pt" viewBox="0 0 512 512" version="1.1" xmlns="http://www.w3.org/2000/svg">
<g id="#ff0000ff">
<path fill="#ff0000" opacity="1.00" d=" M 119.72 85.37 C 150.15 85.36 180.58 85.64 211.00 85.15 C 248.67 85.29 286.34 84.88 324.00 85.42 C 346.76 85.38 369.52 85.46 392.28 85.37 C 392.73 122.24 392.34 159.13 392.47 196.00 C 392.48 241.33 392.45 286.67 392.49 332.00 C 392.12 370.92 373.96 409.16 344.11 434.12 C 317.39 456.89 281.75 468.98 246.69 466.66 C 234.08 465.30 221.52 462.86 209.59 458.49 C 182.72 448.39 158.83 430.12 142.85 406.18 C 128.04 384.43 119.94 358.28 119.52 332.00 C 119.55 282.00 119.52 232.00 119.53 182.00 C 119.66 149.79 119.28 117.58 119.72 85.37 M 129.61 96.12 C 129.42 173.41 129.61 250.71 129.51 328.00 C 129.34 345.55 132.68 363.18 139.84 379.23 C 151.30 407.26 173.76 430.45 200.96 443.60 C 201.21 433.07 201.01 422.53 201.07 412.00 C 201.03 306.71 201.16 201.42 201.00 96.13 C 177.21 96.10 153.41 96.12 129.61 96.12 M 312.98 96.13 C 312.83 138.09 312.96 180.04 312.92 222.00 C 313.00 295.55 312.76 369.10 313.04 442.65 C 323.37 437.68 332.61 430.72 341.25 423.25 C 354.24 410.79 365.70 396.19 372.16 379.24 C 379.30 363.19 382.71 345.55 382.49 328.01 C 382.39 250.71 382.58 173.42 382.39 96.12 C 359.25 96.12 336.12 96.10 312.98 96.13 Z" />
</g>
</svg>
