<?xml version="1.0" encoding="UTF-8" ?>
<!DOCTYPE svg PUBLIC "-//W3C//DTD SVG 1.1//EN" "http://www.w3.org/Graphics/SVG/1.1/DTD/svg11.dtd">
<svg width="512pt" height="512pt" viewBox="0 0 512 512" version="1.1" xmlns="http://www.w3.org/2000/svg">
<g id="#ff0000ff">
<path fill="#ff0000" opacity="1.00" d=" M 239.82 73.89 C 243.26 67.20 246.06 60.16 250.03 53.76 C 251.99 56.38 253.25 59.42 254.67 62.34 C 271.94 97.36 289.16 132.41 306.49 167.40 C 308.31 170.94 309.64 174.77 311.90 178.07 C 314.93 179.21 318.23 179.24 321.40 179.75 C 359.40 185.33 397.41 190.81 435.41 196.41 C 440.18 197.09 445.05 197.31 449.67 198.80 C 440.53 208.60 430.48 217.54 421.07 227.09 C 400.89 246.91 380.37 266.38 360.19 286.19 C 356.92 289.62 353.03 292.50 350.24 296.36 C 350.19 298.77 350.75 301.13 351.16 303.49 C 355.81 330.98 360.64 358.45 365.27 385.96 C 367.85 402.24 371.16 418.42 373.55 434.72 C 369.78 431.86 365.61 429.63 361.38 427.56 C 324.97 408.32 288.47 389.24 252.07 369.99 C 250.56 368.95 248.89 369.63 247.45 370.42 C 219.32 385.32 191.11 400.08 162.96 414.94 C 150.72 421.48 138.24 427.59 126.26 434.58 C 126.51 430.08 127.61 425.68 128.38 421.26 C 135.31 380.86 142.12 340.45 149.19 300.08 C 149.37 298.84 149.57 297.59 149.50 296.34 C 148.32 294.60 146.73 293.20 145.24 291.75 C 126.11 273.55 107.66 254.66 88.62 236.37 C 79.26 227.07 69.74 217.93 60.32 208.69 C 57.03 205.47 53.50 202.47 50.64 198.86 C 54.65 197.62 58.87 197.39 63.02 196.83 C 103.76 190.94 144.47 184.81 185.24 179.11 C 187.75 179.14 189.13 177.06 190.02 175.01 C 206.48 141.24 223.22 107.60 239.82 73.89 M 241.32 93.32 C 228.20 120.41 214.60 147.28 201.45 174.37 C 199.70 177.91 198.11 181.57 195.73 184.74 C 193.00 188.20 188.30 188.63 184.27 189.35 C 155.13 193.33 126.06 197.79 96.94 201.93 C 88.33 202.89 79.87 204.97 71.20 205.37 C 88.14 221.90 105.19 238.33 121.98 255.01 C 123.92 256.85 125.99 259.20 128.96 258.81 C 169.33 258.73 209.72 258.88 250.09 258.74 C 250.25 257.50 250.35 256.26 250.37 255.02 C 250.34 200.68 250.37 146.34 250.36 92.00 C 250.32 86.90 250.61 81.79 250.03 76.71 C 246.27 81.76 244.48 87.91 241.32 93.32 M 250.50 259.45 C 250.13 290.29 250.53 321.16 250.31 352.02 C 250.31 354.16 250.24 356.33 250.57 358.46 C 257.92 361.56 264.83 365.55 271.94 369.16 C 291.71 379.72 311.63 390.01 331.46 400.46 C 340.93 405.38 350.21 410.74 359.93 415.16 C 359.43 410.45 358.43 405.82 357.79 401.14 C 353.16 375.07 349.03 348.92 344.24 322.88 C 343.47 315.66 341.73 308.59 340.53 301.44 C 339.99 298.06 339.58 294.38 341.18 291.22 C 342.81 288.58 345.37 286.72 347.53 284.55 C 353.29 278.96 358.95 273.29 364.74 267.74 C 367.67 264.96 370.73 262.27 373.11 258.98 C 367.75 258.60 362.37 258.84 357.00 258.79 C 322.98 258.76 288.96 258.86 254.94 258.74 C 253.46 258.86 251.81 258.62 250.50 259.45 Z" />
</g>
</svg>
