<?xml version="1.0" encoding="UTF-8" ?>
<!DOCTYPE svg PUBLIC "-//W3C//DTD SVG 1.1//EN" "http://www.w3.org/Graphics/SVG/1.1/DTD/svg11.dtd">
<svg width="512pt" height="512pt" viewBox="0 0 512 512" version="1.1" xmlns="http://www.w3.org/2000/svg">
<g id="#ff0000ff">
<path fill="#ff0000" opacity="1.00" d=" M 195.10 164.07 C 213.45 127.10 231.48 89.96 249.97 53.05 C 270.73 94.71 291.24 136.51 311.75 178.29 C 312.12 178.42 312.86 178.68 313.23 178.81 C 355.49 184.97 397.76 191.09 440.02 197.27 C 443.24 197.64 446.44 198.10 449.61 198.79 C 416.58 231.45 383.08 263.65 349.98 296.26 C 357.71 342.35 365.77 388.38 373.58 434.46 C 369.81 431.67 365.50 429.76 361.39 427.56 C 324.35 407.91 287.02 388.83 249.99 369.16 C 229.26 379.94 208.66 390.97 187.92 401.74 C 169.80 410.87 151.98 420.61 133.96 429.94 C 131.35 431.28 128.77 432.68 126.40 434.43 C 134.11 388.31 142.27 342.26 149.96 296.14 C 126.60 273.47 103.38 250.65 80.02 227.97 C 70.25 218.09 59.96 208.72 50.31 198.72 C 96.06 191.94 141.84 185.32 187.62 178.73 C 190.37 173.97 192.70 169.00 195.10 164.07 M 96.86 201.96 C 88.27 202.95 79.80 204.94 71.15 205.44 C 99.27 232.43 126.91 259.94 154.99 286.98 C 156.77 288.60 158.90 290.21 159.39 292.72 C 161.00 297.54 158.94 302.44 158.26 307.22 C 152.01 343.36 145.89 379.51 139.67 415.65 C 155.88 407.19 172.05 398.67 188.17 390.05 C 188.15 322.96 188.24 255.86 188.12 188.77 C 157.68 193.02 127.28 197.58 96.86 201.96 M 310.97 188.57 C 310.93 255.62 310.83 322.67 311.01 389.72 C 327.40 398.29 343.69 407.02 360.10 415.56 C 358.57 406.24 357.23 396.89 355.31 387.64 C 354.22 377.76 351.69 368.12 350.51 358.25 C 348.19 347.04 346.93 335.66 344.46 324.48 C 343.53 315.53 341.25 306.79 340.04 297.87 C 339.91 294.96 340.32 291.65 342.40 289.44 C 371.33 261.58 399.82 233.26 428.78 205.43 C 423.42 205.22 418.14 204.18 412.84 203.38 C 378.89 198.42 344.92 193.54 310.97 188.57 Z" />
</g>
</svg>
