<?xml version="1.0" encoding="UTF-8" ?>
<!DOCTYPE svg PUBLIC "-//W3C//DTD SVG 1.1//EN" "http://www.w3.org/Graphics/SVG/1.1/DTD/svg11.dtd">
<svg width="512pt" height="512pt" viewBox="0 0 512 512" version="1.1" xmlns="http://www.w3.org/2000/svg">
<g id="#ff0000ff">
<path fill="#ff0000" opacity="1.00" d=" M 98.33 116.45 C 125.89 115.96 153.45 116.10 181.01 116.09 C 203.67 116.74 226.34 115.95 249.00 116.09 C 275.99 115.83 302.98 116.67 329.97 116.16 C 358.63 115.96 387.29 116.08 415.94 116.37 C 414.25 125.82 413.74 135.42 413.02 144.98 C 409.44 189.07 404.59 233.09 397.50 276.77 C 396.49 282.47 395.37 288.16 394.89 293.95 C 390.53 316.17 386.00 338.43 379.05 360.02 C 373.40 377.48 366.82 395.41 354.08 409.06 C 340.79 423.91 324.13 435.28 306.70 444.73 C 295.25 450.66 283.40 456.11 270.70 458.69 C 256.19 462.11 241.17 458.69 227.56 453.43 C 206.42 444.71 186.34 432.99 169.18 417.81 C 161.83 411.10 154.91 403.72 149.86 395.09 C 142.09 381.74 137.17 366.99 132.73 352.26 C 126.79 331.69 121.98 310.75 118.80 289.57 C 110.65 244.47 105.53 198.88 101.52 153.26 C 100.36 141.00 99.99 128.66 98.33 116.45 M 109.51 127.02 C 110.16 133.00 110.55 139.00 111.12 144.99 C 111.69 157.23 113.64 169.37 114.44 181.59 C 116.35 196.20 117.19 210.97 119.77 225.47 C 119.92 224.01 120.00 222.54 120.02 221.08 C 119.98 189.73 120.02 158.38 120.00 127.03 C 116.50 127.01 113.01 127.01 109.51 127.02 M 185.44 127.07 C 185.49 223.36 185.44 319.65 185.47 415.94 C 185.36 417.18 185.74 418.46 186.90 419.09 C 198.94 427.13 210.92 435.53 224.39 441.10 C 224.51 336.41 224.43 231.72 224.42 127.04 C 211.43 127.04 198.43 126.99 185.44 127.07 M 289.83 127.15 C 289.84 231.96 289.69 336.77 289.91 441.57 C 294.26 439.86 298.39 437.64 302.56 435.52 C 311.81 430.74 319.92 424.15 328.74 418.67 C 328.92 321.46 328.74 224.25 328.82 127.05 C 315.83 127.08 302.82 126.89 289.83 127.15 M 395.00 127.02 C 394.96 155.72 395.02 184.41 394.97 213.11 C 394.97 214.61 395.12 216.12 395.47 217.59 C 398.80 187.45 402.41 157.30 404.00 127.01 C 401.00 127.02 398.00 127.02 395.00 127.02 Z" />
</g>
</svg>
