<?xml version="1.0" encoding="UTF-8" ?>
<!DOCTYPE svg PUBLIC "-//W3C//DTD SVG 1.1//EN" "http://www.w3.org/Graphics/SVG/1.1/DTD/svg11.dtd">
<svg width="512pt" height="512pt" viewBox="0 0 512 512" version="1.1" xmlns="http://www.w3.org/2000/svg">
<g id="#ff0000ff">
<path fill="#ff0000" opacity="1.00" d=" M 119.12 85.16 C 150.42 84.97 181.70 85.44 212.99 85.42 C 251.99 84.71 291.00 85.46 330.00 85.43 C 350.95 84.90 371.92 85.26 392.88 85.16 C 393.08 163.43 392.91 241.70 392.96 319.98 C 392.86 328.61 393.44 337.33 391.83 345.87 C 387.36 385.62 364.29 422.99 330.41 444.35 C 313.03 455.51 293.23 462.97 272.75 465.72 C 261.73 467.87 250.45 466.58 239.32 466.44 C 239.45 466.24 239.70 465.85 239.82 465.65 C 220.61 463.43 202.04 456.55 185.44 446.72 C 157.87 430.66 136.92 404.10 126.56 374.02 C 121.29 358.27 118.65 341.59 119.03 324.98 C 119.09 245.04 118.92 165.10 119.12 85.16 M 177.69 96.11 C 177.67 207.06 177.59 318.02 177.73 428.98 C 185.93 435.25 194.60 440.96 204.01 445.25 C 209.34 447.91 215.21 449.13 220.81 451.08 C 220.82 332.77 220.77 214.46 220.84 96.15 C 206.46 96.06 192.07 96.16 177.69 96.11 M 293.60 96.12 C 293.53 214.19 293.62 332.25 293.55 450.31 C 309.62 446.19 324.16 437.45 336.80 426.88 C 336.63 316.63 336.75 206.39 336.75 96.14 C 322.36 96.09 307.98 96.13 293.60 96.12 Z" />
</g>
</svg>
