<?xml version="1.0" encoding="UTF-8" ?>
<!DOCTYPE svg PUBLIC "-//W3C//DTD SVG 1.1//EN" "http://www.w3.org/Graphics/SVG/1.1/DTD/svg11.dtd">
<svg width="512pt" height="512pt" viewBox="0 0 512 512" version="1.1" xmlns="http://www.w3.org/2000/svg">
<g id="#ff0000ff">
<path fill="#ff0000" opacity="1.00" d=" M 166.69 108.68 C 197.05 91.61 226.56 73.08 256.67 55.58 C 287.80 74.03 318.63 93.00 350.10 110.88 C 366.26 120.52 382.47 130.09 398.71 139.62 C 393.69 202.69 387.68 265.98 373.69 327.82 C 368.65 348.35 363.20 369.17 352.69 387.69 C 346.73 398.08 337.02 405.42 328.13 413.14 C 307.19 429.91 285.02 445.08 262.29 459.30 C 259.86 460.97 256.62 461.72 254.02 459.96 C 234.25 448.07 215.20 435.03 196.59 421.40 C 187.10 414.33 177.86 406.88 169.36 398.64 C 162.13 391.62 157.63 382.43 153.70 373.29 C 146.36 355.60 141.64 336.96 137.51 318.30 C 126.16 264.92 120.23 210.55 115.80 156.21 C 115.65 151.06 114.37 145.99 114.41 140.83 C 114.31 139.31 115.98 138.83 116.96 138.06 C 133.61 128.40 150.14 118.52 166.69 108.68 M 190.01 106.97 C 184.21 110.50 178.15 113.58 172.55 117.43 C 172.42 205.95 172.57 294.48 172.48 383.01 C 172.24 385.85 173.64 388.42 175.64 390.35 C 183.66 398.75 192.77 406.02 202.15 412.83 C 207.45 416.78 212.79 420.71 218.53 424.03 C 218.51 312.95 218.61 201.85 218.48 90.77 C 208.71 95.66 199.51 101.60 190.01 106.97 M 296.34 91.66 C 296.14 202.43 296.30 313.21 296.26 423.99 C 309.27 415.35 321.89 405.99 333.23 395.22 C 337.04 391.19 342.50 387.23 342.28 381.07 C 342.27 300.38 342.28 219.69 342.27 139.00 C 342.22 132.07 342.51 125.14 342.04 118.22 C 333.99 113.05 325.55 108.54 317.36 103.60 C 310.28 99.73 303.56 95.25 296.34 91.66 Z" />
</g>
</svg>
