<?xml version="1.0" encoding="UTF-8" ?>
<!DOCTYPE svg PUBLIC "-//W3C//DTD SVG 1.1//EN" "http://www.w3.org/Graphics/SVG/1.1/DTD/svg11.dtd">
<svg width="512pt" height="512pt" viewBox="0 0 512 512" version="1.1" xmlns="http://www.w3.org/2000/svg">
<g id="#ff0000ff">
<path fill="#ff0000" opacity="1.00" d=" M 241.39 67.47 C 249.24 66.53 257.14 67.33 265.01 67.31 C 270.49 67.37 275.85 68.68 281.30 69.15 C 317.03 73.72 351.28 88.95 378.67 112.32 C 413.99 142.11 437.67 185.26 443.56 231.10 C 445.55 243.32 445.01 255.76 444.86 268.08 C 442.62 303.57 430.11 338.37 409.08 367.06 C 385.66 399.26 351.82 423.83 313.78 435.74 C 299.29 440.52 284.15 442.83 269.05 444.62 C 261.04 444.79 253.01 445.14 244.99 444.91 C 239.88 444.84 234.92 443.49 229.87 442.88 C 196.90 438.23 165.27 424.56 139.29 403.73 C 110.76 381.11 89.04 350.04 77.60 315.48 C 70.67 294.05 67.17 271.45 68.01 248.93 C 69.59 215.18 79.84 181.71 98.43 153.41 C 119.83 120.22 151.96 94.14 188.79 79.92 C 205.63 73.22 223.51 69.90 241.39 67.47 M 255.90 78.05 C 255.82 197.02 255.90 315.98 255.86 434.95 C 262.94 433.44 270.21 434.39 277.32 433.18 C 286.88 431.90 296.38 430.07 305.77 427.83 C 315.34 425.29 324.31 421.12 333.36 417.20 C 341.54 413.92 348.59 408.52 356.26 404.30 C 363.55 399.00 370.90 393.67 377.36 387.37 C 399.44 367.54 415.83 341.77 425.63 313.83 C 428.45 306.31 429.91 298.40 431.46 290.56 C 436.20 268.11 436.28 244.73 431.62 222.26 C 429.64 211.62 427.34 200.94 422.80 191.05 C 409.89 157.03 385.66 127.72 355.58 107.44 C 346.99 102.23 338.56 96.58 329.07 93.10 C 320.25 89.05 311.14 85.49 301.67 83.28 C 293.24 81.87 284.94 79.69 276.44 78.74 C 269.64 77.86 262.75 78.00 255.90 78.05 Z" />
</g>
</svg>
