<?xml version="1.0" encoding="UTF-8" ?>
<!DOCTYPE svg PUBLIC "-//W3C//DTD SVG 1.1//EN" "http://www.w3.org/Graphics/SVG/1.1/DTD/svg11.dtd">
<svg width="512pt" height="512pt" viewBox="0 0 512 512" version="1.1" xmlns="http://www.w3.org/2000/svg">
<g id="#ff0000ff">
<path fill="#ff0000" opacity="1.00" d=" M 251.76 59.72 C 253.39 58.65 254.90 57.41 256.33 56.09 C 257.90 57.40 259.54 58.61 261.24 59.75 C 306.01 89.19 350.88 118.49 395.61 148.00 C 393.94 161.02 392.49 174.07 390.74 187.08 C 390.35 196.83 388.42 206.44 387.46 216.14 C 383.60 247.96 379.57 279.75 375.74 311.57 C 371.49 340.88 368.35 370.35 364.54 399.73 C 334.64 415.50 304.57 430.94 274.61 446.60 C 268.81 449.70 262.80 452.44 257.29 456.05 C 253.00 452.65 247.91 450.53 243.18 447.85 C 213.33 431.73 183.28 415.98 153.56 399.64 C 149.05 369.76 145.26 339.76 140.31 309.95 C 135.17 273.64 129.88 237.35 124.68 201.05 C 122.54 184.00 120.12 166.98 117.58 149.98 C 117.23 148.78 117.49 147.56 118.73 147.03 C 163.06 117.90 207.41 88.82 251.76 59.72 M 235.98 81.96 C 200.08 105.53 164.23 129.18 128.24 152.61 C 129.68 165.50 132.10 178.25 133.47 191.15 C 160.64 191.59 187.82 191.21 215.00 191.34 C 270.02 191.32 325.04 191.37 380.07 191.31 C 381.90 178.97 383.06 166.53 384.77 154.17 C 385.22 152.08 382.65 151.57 381.42 150.53 C 339.68 123.25 298.09 95.74 256.32 68.51 C 249.61 73.10 242.86 77.63 235.98 81.96 M 152.25 320.65 C 153.05 327.13 154.45 333.53 155.10 340.02 C 157.37 357.85 160.57 375.55 162.59 393.41 C 193.73 409.88 224.66 426.73 255.78 443.25 C 258.15 445.01 260.48 442.47 262.62 441.55 C 293.54 425.56 324.39 409.44 355.28 393.39 C 355.96 387.95 356.79 382.54 357.10 377.07 C 358.59 365.91 360.21 354.77 361.38 343.57 C 362.14 335.92 363.64 328.36 364.06 320.68 C 293.45 320.58 222.85 320.63 152.25 320.65 Z" />
</g>
</svg>
