<?xml version="1.0" encoding="UTF-8" ?>
<!DOCTYPE svg PUBLIC "-//W3C//DTD SVG 1.1//EN" "http://www.w3.org/Graphics/SVG/1.1/DTD/svg11.dtd">
<svg width="512pt" height="512pt" viewBox="0 0 512 512" version="1.1" xmlns="http://www.w3.org/2000/svg">
<g id="#ff0000ff">
<path fill="#ff0000" opacity="1.00" d=" M 135.06 75.04 C 166.71 74.54 198.36 76.01 230.01 74.99 C 248.34 75.01 266.67 75.00 285.00 75.00 C 315.63 76.03 346.26 74.54 376.90 75.05 C 376.98 196.36 376.93 317.67 376.93 438.97 C 296.30 439.02 215.67 439.02 135.04 438.98 C 135.03 317.66 135.00 196.35 135.06 75.04 M 181.18 86.12 C 181.16 200.40 181.17 314.67 181.17 428.94 C 194.90 429.05 208.62 429.02 222.35 428.96 C 222.46 314.68 222.48 200.39 222.34 86.11 C 208.62 86.05 194.90 86.03 181.18 86.12 M 292.19 86.13 C 292.17 200.40 292.19 314.67 292.18 428.94 C 305.89 429.05 319.61 429.04 333.33 428.94 C 333.43 314.67 333.46 200.40 333.31 86.13 C 319.61 86.04 305.90 86.03 292.19 86.13 Z" />
</g>
</svg>
