<?xml version="1.0" encoding="UTF-8" ?>
<!DOCTYPE svg PUBLIC "-//W3C//DTD SVG 1.1//EN" "http://www.w3.org/Graphics/SVG/1.1/DTD/svg11.dtd">
<svg width="512pt" height="512pt" viewBox="0 0 512 512" version="1.1" xmlns="http://www.w3.org/2000/svg">
<g id="#00ff00ff">
<path fill="#00ff00" opacity="1.00" d=" M 191.31 172.31 C 210.83 132.67 230.28 93.00 249.97 53.45 C 270.43 94.56 290.61 135.82 310.96 176.99 C 311.34 178.06 312.08 178.67 313.19 178.81 C 358.65 185.51 404.18 191.86 449.61 198.79 C 416.57 231.45 383.09 263.67 349.97 296.25 C 357.71 342.37 365.80 388.42 373.57 434.53 C 370.66 432.25 367.32 430.63 364.05 428.95 C 326.03 408.95 288.03 388.91 249.99 368.96 C 213.46 388.03 177.04 407.33 140.56 426.50 C 135.84 429.14 130.76 431.20 126.43 434.48 C 134.07 388.33 142.28 342.28 149.97 296.14 C 126.60 273.48 103.38 250.65 80.02 227.97 C 70.25 218.09 59.96 208.74 50.33 198.73 C 96.04 191.85 141.86 185.48 187.57 178.62 C 189.48 177.08 190.08 174.39 191.31 172.31 Z" />
</g>
</svg>
