<?xml version="1.0" encoding="UTF-8" ?>
<!DOCTYPE svg PUBLIC "-//W3C//DTD SVG 1.1//EN" "http://www.w3.org/Graphics/SVG/1.1/DTD/svg11.dtd">
<svg width="512pt" height="512pt" viewBox="0 0 512 512" version="1.1" xmlns="http://www.w3.org/2000/svg">
<g id="#ff0000ff">
<path fill="#ff0000" opacity="1.00" d=" M 120.11 85.18 C 137.98 85.20 155.85 85.12 173.72 85.22 C 173.99 103.03 173.41 120.86 174.01 138.66 C 191.06 138.62 208.11 138.60 225.17 138.67 C 225.76 120.88 225.27 103.06 225.40 85.25 C 245.17 85.10 264.94 85.16 284.71 85.22 C 284.98 103.03 284.42 120.85 284.98 138.66 C 302.02 138.62 319.05 138.59 336.09 138.67 C 336.60 120.87 336.10 103.05 336.33 85.24 C 355.22 85.13 374.11 85.14 393.01 85.23 C 393.12 87.48 393.27 89.73 393.31 91.98 C 393.29 167.98 393.30 243.99 393.30 320.00 C 393.60 336.02 392.17 352.22 387.66 367.66 C 378.43 399.16 357.68 427.41 329.60 444.61 C 312.58 455.48 293.13 462.19 273.21 465.21 C 264.65 467.14 255.78 467.37 247.08 466.42 C 238.10 464.78 228.98 463.64 220.26 460.83 C 201.25 455.67 183.67 445.98 168.44 433.57 C 145.57 414.21 129.34 387.11 123.26 357.75 C 121.24 347.97 119.82 338.01 120.00 328.00 C 120.09 247.06 119.86 166.12 120.11 85.18 M 173.69 148.72 C 173.44 237.48 173.71 326.24 173.56 415.00 C 173.68 418.19 173.11 421.56 174.18 424.63 C 176.62 427.65 180.09 429.55 183.16 431.86 C 190.24 437.05 197.85 441.53 205.84 445.18 C 211.87 447.91 218.37 449.34 224.72 451.12 C 224.80 350.35 224.71 249.59 224.76 148.82 C 207.75 148.44 190.71 148.63 173.69 148.72 M 285.70 148.73 C 285.45 220.49 285.66 292.25 285.59 364.00 C 285.70 393.35 285.39 422.70 285.75 452.04 C 293.00 450.04 300.40 448.35 307.28 445.23 C 317.12 441.00 326.16 435.11 334.64 428.63 C 336.53 427.42 336.20 424.97 336.34 423.05 C 336.17 331.67 336.47 240.29 336.19 148.91 C 319.37 148.34 302.53 148.66 285.70 148.73 Z" />
</g>
</svg>
