<?xml version="1.0" encoding="UTF-8" ?>
<!DOCTYPE svg PUBLIC "-//W3C//DTD SVG 1.1//EN" "http://www.w3.org/Graphics/SVG/1.1/DTD/svg11.dtd">
<svg width="512pt" height="512pt" viewBox="0 0 512 512" version="1.1" xmlns="http://www.w3.org/2000/svg">
<g id="#ff0000ff">
<path fill="#ff0000" opacity="1.00" d=" M 135.30 75.34 C 174.20 75.34 213.10 75.37 252.00 75.32 C 263.99 74.79 276.00 75.06 288.00 75.00 C 317.64 75.04 347.27 74.93 376.91 75.05 C 376.98 129.03 376.91 183.02 376.94 237.00 C 376.58 304.31 376.80 371.63 376.77 438.95 C 296.20 439.05 215.62 439.00 135.04 438.98 C 135.01 386.98 135.04 334.99 135.03 283.00 C 135.47 213.78 135.11 144.56 135.30 75.34 M 145.24 86.12 C 145.29 142.97 145.20 199.82 145.29 256.67 C 182.46 256.75 219.63 256.58 256.80 256.75 C 256.89 314.13 256.68 371.52 256.90 428.91 C 293.52 429.07 330.14 429.03 366.75 428.93 C 366.72 371.56 366.78 314.19 366.72 256.83 C 330.08 256.31 293.42 257.12 256.79 256.43 C 256.83 199.66 256.80 142.90 256.81 86.13 C 219.62 86.03 182.43 86.06 145.24 86.12 Z" />
</g>
</svg>
