<?xml version="1.0" encoding="UTF-8" ?>
<!DOCTYPE svg PUBLIC "-//W3C//DTD SVG 1.1//EN" "http://www.w3.org/Graphics/SVG/1.1/DTD/svg11.dtd">
<svg width="512pt" height="512pt" viewBox="0 0 512 512" version="1.1" xmlns="http://www.w3.org/2000/svg">
<g id="#ff0000ff">
<path fill="#ff0000" opacity="1.00" d=" M 98.21 116.08 C 150.48 116.15 202.75 115.96 255.03 116.18 C 308.68 116.53 362.34 116.15 416.00 116.37 C 413.79 128.78 413.45 141.40 412.27 153.93 C 407.66 206.93 401.55 259.89 390.97 312.07 C 386.46 333.52 381.30 354.93 373.43 375.44 C 369.27 385.95 364.42 396.37 357.17 405.14 C 346.39 418.15 332.99 428.74 318.78 437.77 C 306.12 445.60 292.66 452.35 278.32 456.50 C 267.39 459.65 255.65 461.31 244.45 458.54 C 224.21 453.88 205.39 444.32 188.28 432.72 C 174.89 423.42 162.03 412.84 152.60 399.40 C 144.12 386.68 138.97 372.11 134.37 357.63 C 123.30 321.72 117.21 284.51 111.77 247.40 C 105.54 203.82 101.59 159.96 98.21 116.08 M 255.83 127.03 C 255.84 203.68 255.83 280.34 255.84 357.00 C 255.99 387.93 255.52 418.87 256.08 449.80 C 270.84 448.41 285.52 444.59 298.63 437.54 C 309.13 432.55 318.39 425.45 328.02 419.03 C 337.38 411.82 346.02 403.51 352.91 393.87 C 359.22 384.10 364.14 373.37 367.22 362.15 C 372.52 346.45 376.66 330.38 380.24 314.21 C 383.97 296.36 387.54 278.44 389.40 260.29 C 392.07 243.39 394.35 226.44 396.45 209.46 C 399.31 182.02 402.58 154.59 404.05 127.02 C 354.64 127.04 305.24 127.03 255.83 127.03 Z" />
</g>
</svg>
