<?xml version="1.0" encoding="UTF-8" ?>
<!DOCTYPE svg PUBLIC "-//W3C//DTD SVG 1.1//EN" "http://www.w3.org/Graphics/SVG/1.1/DTD/svg11.dtd">
<svg width="512pt" height="512pt" viewBox="0 0 512 512" version="1.1" xmlns="http://www.w3.org/2000/svg">
<g id="#ff0000ff">
<path fill="#ff0000" opacity="1.00" d=" M 117.44 84.18 C 135.40 83.87 153.38 84.04 171.35 84.10 C 171.75 101.74 171.33 119.40 171.52 137.05 C 178.67 137.64 185.84 137.26 193.00 137.34 C 203.59 137.23 214.19 137.57 224.78 137.18 C 225.08 119.50 224.61 101.80 224.98 84.12 C 245.05 84.00 265.12 83.90 285.19 84.11 C 285.57 101.71 285.14 119.33 285.36 136.94 C 302.93 137.33 320.52 137.27 338.08 136.97 C 338.48 119.36 338.03 101.75 338.27 84.13 C 357.78 83.90 377.30 83.93 396.81 84.12 C 396.96 146.76 396.85 209.41 396.86 272.05 C 395.93 286.02 396.44 300.02 396.31 314.00 C 396.14 324.06 397.03 334.22 395.01 344.16 C 391.61 363.44 380.63 380.41 367.85 394.86 C 346.93 418.15 321.12 436.42 294.37 452.39 C 283.82 458.69 272.96 464.45 261.97 469.94 C 260.07 470.77 258.15 471.83 256.03 471.86 C 253.51 471.45 251.26 470.14 248.99 469.04 C 216.39 452.44 184.82 433.07 157.97 408.04 C 140.85 391.71 125.00 372.47 119.07 349.08 C 117.47 343.19 116.88 337.08 117.02 330.99 C 117.22 310.99 116.69 290.99 117.42 271.00 C 117.43 208.73 117.38 146.46 117.44 84.18 M 127.44 94.19 C 127.44 155.32 127.35 216.45 127.48 277.58 C 170.57 277.77 213.66 277.68 256.75 277.63 C 257.26 272.43 257.03 267.21 256.86 262.00 C 256.80 206.05 256.92 150.10 256.80 94.15 C 249.53 93.93 242.26 93.89 234.99 94.14 C 234.68 106.77 234.93 119.41 234.91 132.05 C 234.88 135.90 234.78 140.14 232.32 143.33 C 229.74 146.81 225.24 148.05 221.09 148.02 C 206.38 148.05 191.67 147.95 176.95 148.05 C 173.11 148.04 168.84 147.94 165.77 145.27 C 162.35 142.65 161.54 138.09 161.48 134.03 C 161.35 120.73 161.74 107.41 161.34 94.11 C 150.04 93.99 138.73 93.89 127.44 94.19 M 257.07 277.80 C 256.96 279.86 256.86 281.93 256.83 284.00 C 256.87 324.33 256.84 364.67 256.85 405.00 C 257.00 423.63 256.54 442.28 257.08 460.90 C 266.72 456.57 275.70 450.96 284.95 445.87 C 299.74 438.26 313.39 428.67 326.62 418.64 C 334.86 411.90 343.54 405.64 351.00 398.00 C 357.68 391.62 363.39 384.35 369.09 377.11 C 376.16 368.03 381.52 357.55 384.38 346.38 C 386.43 338.42 385.77 330.14 385.85 322.00 C 385.77 307.28 386.00 292.56 385.76 277.84 C 382.51 277.70 379.25 277.62 376.00 277.64 C 336.36 277.81 296.71 277.48 257.07 277.80 Z" />
</g>
</svg>
