<?xml version="1.0" encoding="UTF-8" ?>
<!DOCTYPE svg PUBLIC "-//W3C//DTD SVG 1.1//EN" "http://www.w3.org/Graphics/SVG/1.1/DTD/svg11.dtd">
<svg width="512pt" height="512pt" viewBox="0 0 512 512" version="1.1" xmlns="http://www.w3.org/2000/svg">
<g id="#ff0000ff">
<path fill="#ff0000" opacity="1.00" d=" M 231.80 72.80 C 239.95 67.17 248.69 62.37 256.37 56.09 C 278.76 71.32 301.61 85.87 324.18 100.83 C 348.08 116.60 372.14 132.12 395.93 148.05 C 393.17 168.37 390.93 188.76 388.25 209.09 C 384.23 243.66 379.30 278.13 375.33 312.71 C 371.69 341.72 368.13 370.74 364.55 399.76 C 345.35 409.87 326.06 419.79 306.83 429.84 C 290.31 438.63 273.46 446.78 257.19 456.01 C 250.35 451.56 242.96 448.08 235.83 444.13 C 211.31 431.02 186.83 417.83 162.30 404.75 C 159.36 403.06 155.96 401.91 153.57 399.44 C 152.47 395.91 152.26 392.19 151.68 388.56 C 146.29 350.56 140.75 312.58 135.32 274.57 C 134.26 266.37 132.60 258.25 131.98 249.99 C 128.19 223.28 124.28 196.59 120.48 169.89 C 119.25 162.67 118.85 155.28 116.69 148.25 C 155.15 123.24 193.42 97.94 231.80 72.80 M 128.21 152.58 C 131.36 176.70 135.19 200.72 138.43 224.83 C 140.15 234.62 140.94 244.58 142.84 254.34 C 146.48 255.25 150.28 254.76 154.00 254.84 C 181.67 254.78 209.33 254.84 237.00 254.81 C 243.22 254.80 249.45 254.71 255.67 255.09 C 255.58 312.72 255.67 370.36 255.62 428.00 C 255.61 433.48 255.48 438.98 256.05 444.44 C 263.14 441.77 269.59 437.72 276.40 434.44 C 302.69 420.75 328.97 407.03 355.31 393.42 C 359.67 356.28 364.55 319.20 368.94 282.06 C 370.08 273.01 371.46 263.98 372.10 254.88 C 333.28 254.75 294.47 254.81 255.65 254.85 C 255.63 192.92 255.57 131.00 255.68 69.07 C 213.16 96.86 170.83 124.94 128.21 152.58 Z" />
</g>
</svg>
