<?xml version="1.0" encoding="UTF-8" ?>
<!DOCTYPE svg PUBLIC "-//W3C//DTD SVG 1.1//EN" "http://www.w3.org/Graphics/SVG/1.1/DTD/svg11.dtd">
<svg width="512pt" height="512pt" viewBox="0 0 512 512" version="1.1" xmlns="http://www.w3.org/2000/svg">
<g id="#ff0000ff">
<path fill="#ff0000" opacity="1.00" d=" M 116.18 148.43 C 162.84 117.72 209.90 87.58 256.20 56.34 C 259.38 57.80 262.03 60.17 264.99 62.01 C 288.40 77.22 311.50 92.90 334.91 108.12 C 353.69 119.88 371.97 132.41 390.62 144.37 C 392.41 145.57 394.33 146.68 395.76 148.33 C 386.36 224.79 376.89 301.27 367.52 377.74 C 366.17 384.95 366.27 392.39 364.59 399.53 C 363.05 401.14 360.91 401.96 358.99 403.00 C 338.93 413.20 318.88 423.44 298.97 433.97 C 285.39 441.45 271.42 448.25 257.84 455.73 C 255.23 455.54 253.17 453.23 250.80 452.17 C 222.76 437.25 195.08 421.67 166.82 407.15 C 162.49 404.45 157.38 402.88 153.52 399.51 C 151.09 387.18 150.01 374.60 147.90 362.20 C 138.23 294.87 128.57 227.54 118.86 160.22 C 118.45 156.18 116.95 152.39 116.18 148.43 M 208.22 100.24 C 197.33 107.33 186.47 114.46 175.63 121.61 C 173.95 122.45 173.65 124.24 173.73 125.94 C 173.73 215.98 173.75 306.02 173.72 396.06 C 173.86 397.40 173.55 399.23 175.05 399.95 C 179.90 402.85 185.08 405.17 189.97 408.03 C 199.72 412.98 209.08 418.75 219.06 423.21 C 219.54 398.15 219.12 373.07 219.26 348.00 C 219.26 289.34 219.26 230.67 219.26 172.00 C 219.12 145.89 219.53 119.76 219.06 93.66 C 215.11 95.26 211.78 97.96 208.22 100.24 M 295.32 94.26 C 295.57 204.14 295.35 314.04 295.43 423.92 C 299.45 422.83 302.99 420.55 306.69 418.70 C 315.85 413.82 325.05 408.99 334.36 404.38 C 336.48 403.26 338.77 402.29 340.52 400.59 C 341.05 396.08 340.62 391.52 340.72 387.00 C 340.73 303.33 340.72 219.67 340.72 136.00 C 340.66 132.13 341.02 128.23 340.54 124.38 C 339.43 122.84 337.74 121.87 336.21 120.81 C 322.52 112.05 309.12 102.82 295.32 94.26 Z" />
</g>
</svg>
