<?xml version="1.0" encoding="UTF-8" ?>
<!DOCTYPE svg PUBLIC "-//W3C//DTD SVG 1.1//EN" "http://www.w3.org/Graphics/SVG/1.1/DTD/svg11.dtd">
<svg width="512pt" height="512pt" viewBox="0 0 512 512" version="1.1" xmlns="http://www.w3.org/2000/svg">
<g id="#ff0000ff">
<path fill="#ff0000" opacity="1.00" d=" M 239.62 67.62 C 245.34 63.71 251.42 60.28 256.80 55.89 C 266.90 63.39 277.75 69.82 288.17 76.87 C 293.54 80.05 298.16 84.30 303.52 87.51 C 334.21 107.69 364.98 127.74 395.61 148.01 C 385.23 231.91 374.94 315.82 364.54 399.72 C 345.83 409.69 326.93 419.30 308.16 429.15 C 303.84 431.49 299.32 433.50 295.20 436.19 C 282.98 443.25 269.87 448.75 257.94 456.31 C 248.36 450.19 238.02 445.38 228.10 439.84 C 203.33 426.30 178.25 413.32 153.56 399.63 C 141.44 315.89 129.47 232.12 117.37 148.37 C 118.06 147.11 119.57 146.56 120.67 145.70 C 160.36 119.74 199.99 93.68 239.62 67.62 M 128.25 152.61 C 135.54 205.80 143.48 258.89 151.05 312.04 C 152.03 321.42 154.05 330.66 155.10 340.03 C 157.38 357.85 160.56 375.55 162.60 393.40 C 181.49 403.40 200.30 413.55 219.12 423.68 C 219.22 313.50 219.22 203.31 219.12 93.12 C 188.76 112.85 158.62 132.91 128.25 152.61 M 295.88 94.48 C 295.78 204.37 295.79 314.27 295.87 424.17 C 315.77 414.11 335.47 403.63 355.27 393.39 C 364.51 318.02 373.89 242.65 383.12 167.27 C 383.45 162.40 384.94 157.49 384.57 152.64 C 355.00 133.28 325.52 113.75 295.88 94.48 Z" />
</g>
</svg>
