<?xml version="1.0" encoding="UTF-8" ?>
<!DOCTYPE svg PUBLIC "-//W3C//DTD SVG 1.1//EN" "http://www.w3.org/Graphics/SVG/1.1/DTD/svg11.dtd">
<svg width="512pt" height="512pt" viewBox="0 0 512 512" version="1.1" xmlns="http://www.w3.org/2000/svg">
<g id="#ff0000ff">
<path fill="#ff0000" opacity="1.00" d=" M 236.46 67.50 C 243.26 63.65 249.74 59.27 256.69 55.68 C 300.55 81.70 344.28 107.95 388.30 133.71 C 391.54 135.50 394.68 137.45 397.79 139.46 C 398.05 145.33 397.49 151.18 396.90 157.02 C 394.56 188.71 391.24 220.33 387.00 251.83 C 382.91 281.22 378.00 310.54 370.61 339.29 C 366.79 353.53 362.45 367.71 356.00 381.00 C 352.51 388.40 347.73 395.17 341.90 400.90 C 329.62 412.82 315.79 422.99 301.87 432.89 C 290.52 441.39 278.46 448.86 266.60 456.62 C 264.08 458.18 261.63 460.00 258.76 460.88 C 255.84 461.52 253.29 459.50 250.89 458.16 C 237.54 449.56 223.94 441.29 211.16 431.84 C 199.27 423.53 187.51 414.97 176.64 405.36 C 170.09 399.53 163.87 393.11 159.74 385.29 C 151.36 369.80 146.30 352.79 141.86 335.83 C 131.22 293.15 125.43 249.46 120.61 205.80 C 118.92 188.88 117.29 171.96 116.02 155.00 C 115.64 150.35 115.14 145.67 115.34 141.00 C 115.16 139.09 117.18 138.37 118.43 137.44 C 157.88 114.32 197.22 90.99 236.46 67.50 M 199.49 101.43 C 179.10 113.38 158.64 125.23 138.36 137.38 C 134.02 140.11 129.70 142.90 125.55 145.92 C 127.46 176.84 130.66 207.67 134.55 238.41 C 136.45 251.89 137.64 265.53 141.14 278.72 C 143.66 293.06 145.91 307.46 149.28 321.63 C 153.80 342.50 159.58 363.35 169.69 382.27 C 174.02 389.69 180.59 395.41 186.98 401.00 C 196.59 408.89 206.48 416.53 217.05 423.09 C 217.32 340.06 217.09 257.03 217.17 174.00 C 217.06 146.50 217.37 118.99 217.02 91.49 C 211.05 94.59 205.29 98.04 199.49 101.43 M 296.96 91.87 C 296.67 175.91 296.91 259.96 296.83 344.00 C 296.94 370.45 296.63 396.91 296.98 423.36 C 305.40 418.18 313.20 412.06 320.98 405.99 C 329.21 398.96 338.03 392.07 343.57 382.59 C 350.17 370.27 354.94 357.07 358.58 343.60 C 365.82 318.99 369.19 293.49 374.45 268.43 C 380.66 227.83 384.79 186.92 387.62 145.95 C 380.55 141.08 373.37 136.37 365.92 132.10 C 342.96 118.65 320.10 105.01 296.96 91.87 Z" />
</g>
</svg>
