<?xml version="1.0" encoding="UTF-8" ?>
<!DOCTYPE svg PUBLIC "-//W3C//DTD SVG 1.1//EN" "http://www.w3.org/Graphics/SVG/1.1/DTD/svg11.dtd">
<svg width="512pt" height="512pt" viewBox="0 0 512 512" version="1.1" xmlns="http://www.w3.org/2000/svg">
<g id="#ff0000ff">
<path fill="#ff0000" opacity="1.00" d=" M 241.39 67.47 C 248.57 66.69 255.81 67.12 263.02 67.01 C 270.97 66.75 278.72 68.73 286.56 69.67 C 332.76 77.13 375.81 102.47 404.71 139.30 C 423.02 162.38 435.70 189.86 441.51 218.73 C 443.69 230.02 445.30 241.47 445.00 253.00 C 446.07 288.30 436.15 323.69 417.90 353.85 C 397.73 387.14 367.02 413.91 331.25 429.27 C 316.92 435.30 302.01 440.17 286.58 442.44 C 279.40 443.35 272.32 445.20 265.03 444.98 C 254.44 444.82 243.71 445.74 233.28 443.39 C 209.15 440.40 185.76 432.28 164.54 420.49 C 133.89 403.32 108.24 377.39 91.41 346.56 C 76.23 318.96 68.30 287.47 68.21 256.00 C 68.33 226.03 75.49 196.04 89.35 169.44 C 109.54 130.17 144.02 98.52 184.87 81.74 C 194.40 78.06 204.00 74.39 214.01 72.22 C 223.00 69.93 232.27 69.05 241.39 67.47 M 180.53 94.68 C 172.40 98.10 165.16 103.19 157.63 107.69 C 130.94 125.40 109.48 150.62 95.59 179.42 C 90.05 192.28 84.41 205.34 82.37 219.30 C 80.46 229.10 78.76 239.00 78.95 249.03 C 78.13 253.67 78.13 258.33 78.95 262.97 C 78.73 273.28 80.57 283.46 82.52 293.54 C 84.33 305.95 89.32 317.57 93.96 329.13 C 97.49 337.78 102.78 345.52 107.29 353.66 C 117.42 368.22 128.82 382.10 142.72 393.23 C 149.03 397.97 154.84 403.46 161.98 406.97 C 173.89 415.25 187.47 420.62 200.95 425.74 C 201.06 312.64 200.98 199.55 200.99 86.46 C 193.95 88.64 187.33 91.90 180.53 94.68 M 313.01 86.56 C 312.97 199.55 312.96 312.53 313.02 425.52 C 319.80 423.45 326.11 420.18 332.65 417.51 C 341.11 414.21 348.37 408.66 356.26 404.30 C 363.55 399.01 370.89 393.67 377.36 387.37 C 399.44 367.54 415.84 341.76 425.63 313.82 C 428.55 306.04 430.01 297.84 431.63 289.73 C 435.88 269.20 436.17 247.91 432.60 227.27 C 430.22 214.99 428.10 202.50 422.81 191.07 C 409.90 157.04 385.67 127.73 355.58 107.44 C 346.79 102.07 338.11 96.33 328.36 92.81 C 323.39 90.37 318.20 88.47 313.01 86.56 Z" />
</g>
</svg>
