<?xml version="1.0" encoding="UTF-8" ?>
<!DOCTYPE svg PUBLIC "-//W3C//DTD SVG 1.1//EN" "http://www.w3.org/Graphics/SVG/1.1/DTD/svg11.dtd">
<svg width="512pt" height="512pt" viewBox="0 0 512 512" version="1.1" xmlns="http://www.w3.org/2000/svg">
<g id="#ff0000ff">
<path fill="#ff0000" opacity="1.00" d=" M 117.06 84.03 C 135.30 83.99 153.55 83.95 171.80 84.06 C 171.80 101.74 171.74 119.43 171.82 137.12 C 189.45 137.16 207.08 137.25 224.70 137.07 C 224.69 119.39 224.62 101.71 224.73 84.03 C 244.86 83.97 264.99 84.02 285.12 84.08 C 285.25 101.81 285.13 119.54 285.18 137.26 C 302.91 137.41 320.65 137.36 338.39 137.29 C 338.52 119.56 338.47 101.83 338.41 84.10 C 357.69 84.01 376.97 83.99 396.26 84.11 C 396.39 166.74 396.27 249.37 396.32 332.00 C 395.94 352.62 386.52 371.97 373.77 387.78 C 355.13 410.99 331.13 429.22 306.18 445.15 C 291.69 454.35 276.67 462.69 261.28 470.26 C 259.37 471.03 257.35 472.18 255.24 471.73 C 253.03 471.15 251.02 470.05 248.99 469.05 C 227.11 457.93 205.80 445.55 185.96 431.07 C 165.03 415.66 145.06 398.11 130.90 376.08 C 123.08 363.46 117.23 349.04 117.04 334.02 C 117.07 250.69 117.02 167.36 117.06 84.03 M 255.84 94.07 C 255.74 188.38 255.83 282.69 255.80 377.00 C 255.90 405.10 255.58 433.21 255.96 461.31 C 265.85 457.16 274.92 451.38 284.30 446.23 C 305.63 435.20 324.81 420.53 343.23 405.24 C 354.01 395.96 363.25 385.07 371.67 373.65 C 377.44 365.40 381.89 356.16 384.38 346.39 C 386.36 338.75 385.80 330.80 385.85 323.00 C 385.85 246.69 385.84 170.37 385.86 94.06 C 373.37 94.06 360.89 93.97 348.41 94.11 C 348.53 105.74 348.39 117.37 348.50 129.00 C 348.45 133.34 348.80 137.94 346.90 141.99 C 344.91 145.97 340.40 148.00 336.08 147.97 C 321.04 148.11 306.00 147.92 290.95 148.05 C 286.35 148.13 281.28 147.52 277.83 144.15 C 274.90 141.28 274.96 136.84 274.86 133.03 C 274.92 120.04 274.89 107.05 274.91 94.05 C 268.55 94.02 262.20 94.01 255.84 94.07 Z" />
</g>
</svg>
