<?xml version="1.0" encoding="UTF-8" ?>
<!DOCTYPE svg PUBLIC "-//W3C//DTD SVG 1.1//EN" "http://www.w3.org/Graphics/SVG/1.1/DTD/svg11.dtd">
<svg width="512pt" height="512pt" viewBox="0 0 512 512" version="1.1" xmlns="http://www.w3.org/2000/svg">
<g id="#ff0000ff">
<path fill="#ff0000" opacity="1.00" d=" M 119.66 85.38 C 161.10 85.47 202.55 85.38 244.00 85.42 C 293.63 84.88 343.27 85.27 392.91 85.17 C 393.04 146.80 392.93 208.42 392.96 270.05 C 392.05 288.68 392.63 307.35 392.48 326.00 C 392.94 343.62 389.98 361.33 383.83 377.85 C 372.51 408.14 350.03 434.11 321.62 449.58 C 306.74 457.79 290.30 463.11 273.45 465.28 C 261.23 467.26 248.65 467.66 236.45 465.28 C 206.34 460.87 177.81 446.22 156.94 424.05 C 132.67 398.80 119.03 363.95 119.02 328.99 C 119.10 312.65 118.93 296.31 119.10 279.97 C 119.69 271.66 119.52 263.33 119.53 255.00 C 119.61 198.46 119.35 141.92 119.66 85.38 M 129.57 96.11 C 129.51 156.19 129.48 216.28 129.58 276.36 C 172.00 276.44 214.42 276.40 256.84 276.38 C 256.82 216.30 256.83 156.22 256.83 96.14 C 214.41 96.09 171.99 96.13 129.57 96.11 M 257.14 276.36 C 256.94 280.24 256.78 284.12 256.81 288.01 C 256.89 343.99 256.75 399.98 256.88 455.96 C 273.56 456.41 289.91 452.10 305.45 446.39 C 329.01 436.18 349.36 418.76 363.09 397.06 C 375.80 376.47 382.89 352.26 382.49 328.00 C 382.37 310.79 382.64 293.58 382.34 276.37 C 340.61 276.42 298.88 276.44 257.14 276.36 Z" />
</g>
</svg>
