<?xml version="1.0" encoding="UTF-8" ?>
<!DOCTYPE svg PUBLIC "-//W3C//DTD SVG 1.1//EN" "http://www.w3.org/Graphics/SVG/1.1/DTD/svg11.dtd">
<svg width="512pt" height="512pt" viewBox="0 0 512 512" version="1.1" xmlns="http://www.w3.org/2000/svg">
<g id="#ff0000ff">
<path fill="#ff0000" opacity="1.00" d=" M 132.40 77.32 C 164.27 77.04 196.15 77.58 228.01 77.00 C 252.34 77.14 276.67 76.74 301.00 77.26 C 327.94 77.26 354.88 77.24 381.83 77.27 C 381.91 121.85 381.66 166.42 381.99 211.00 C 381.96 273.33 381.73 335.67 381.83 398.00 C 381.71 411.80 382.08 425.62 381.64 439.41 C 354.17 418.48 326.31 398.07 298.71 377.30 C 284.54 367.38 270.92 356.71 256.96 346.50 C 227.66 368.39 198.07 389.86 168.89 411.90 C 156.76 421.02 144.43 429.88 132.51 439.27 C 132.19 384.53 132.52 329.77 132.34 275.03 C 131.68 265.03 132.15 255.01 132.01 245.00 C 132.18 227.66 131.63 210.32 132.39 193.00 C 132.38 154.44 132.36 115.88 132.40 77.32 M 143.10 88.04 C 143.12 124.81 143.04 161.57 143.14 198.33 C 167.12 198.40 191.10 198.30 215.08 198.38 C 216.59 198.38 218.10 198.26 219.61 198.12 C 219.47 161.44 219.62 124.75 219.53 88.07 C 194.06 88.00 168.58 88.05 143.10 88.04 M 293.61 88.10 C 293.59 124.84 293.58 161.58 293.62 198.32 C 319.67 198.39 345.73 198.35 371.78 198.34 C 371.88 161.58 371.80 124.81 371.83 88.05 C 345.75 88.06 319.68 87.97 293.61 88.10 M 143.13 272.36 C 143.05 320.98 143.14 369.59 143.08 418.21 C 157.99 408.27 171.43 396.31 186.34 386.37 C 197.44 378.07 208.42 369.60 219.43 361.20 C 219.71 331.59 219.49 301.97 219.54 272.35 C 194.07 272.34 168.60 272.31 143.13 272.36 M 293.71 272.32 C 293.49 301.84 293.58 331.36 293.66 360.88 C 307.47 370.44 320.11 381.58 334.14 390.83 C 346.81 400.01 358.64 410.36 371.83 418.83 C 371.80 370.01 371.87 321.18 371.80 272.36 C 345.77 272.29 319.74 272.37 293.71 272.32 Z" />
</g>
</svg>
