<?xml version="1.0" encoding="UTF-8" ?>
<!DOCTYPE svg PUBLIC "-//W3C//DTD SVG 1.1//EN" "http://www.w3.org/Graphics/SVG/1.1/DTD/svg11.dtd">
<svg width="512pt" height="512pt" viewBox="0 0 512 512" version="1.1" xmlns="http://www.w3.org/2000/svg">
<g id="#ff0000ff">
<path fill="#ff0000" opacity="1.00" d=" M 120.13 85.20 C 137.98 85.18 155.84 85.10 173.69 85.24 C 173.93 102.92 173.58 120.61 173.85 138.29 C 191.00 138.53 208.16 138.48 225.30 138.32 C 225.60 120.64 225.31 102.95 225.43 85.27 C 245.02 84.93 264.62 85.50 284.22 85.30 C 284.84 103.06 284.34 120.85 284.45 138.62 C 301.83 138.64 319.22 138.63 336.60 138.62 C 336.76 120.86 336.24 103.08 336.84 85.32 C 355.44 85.32 374.04 85.32 392.65 85.32 C 392.75 159.55 392.66 233.77 392.69 308.00 C 392.50 324.60 393.76 341.44 389.83 357.75 C 383.06 390.64 363.44 420.61 336.16 440.15 C 318.72 452.69 298.29 461.20 276.99 464.23 C 273.53 464.71 270.11 465.45 266.69 466.16 C 257.14 467.65 247.39 466.86 237.99 464.82 C 205.90 460.32 175.58 444.14 154.32 419.65 C 131.38 393.97 119.38 359.30 119.99 325.00 C 120.10 245.07 119.83 165.13 120.13 85.20 M 255.90 97.09 C 255.68 137.39 255.87 177.70 255.81 218.00 C 255.87 297.17 255.68 376.35 255.90 455.52 C 259.94 455.08 264.01 455.02 268.07 454.83 C 277.11 454.37 285.97 452.25 294.60 449.63 C 307.00 446.40 318.47 440.28 328.84 432.85 C 344.06 422.62 356.35 408.43 365.79 392.80 C 369.29 387.54 371.04 381.41 373.65 375.70 C 379.38 362.59 382.02 348.30 382.68 334.06 C 382.71 255.08 382.65 176.11 382.71 97.13 C 370.82 96.89 358.94 97.02 347.05 97.05 C 346.79 111.02 347.37 125.01 346.83 138.97 C 346.66 144.96 340.57 148.86 335.01 148.73 C 319.66 148.55 304.30 148.63 288.95 148.67 C 284.74 148.63 280.05 148.17 276.85 145.14 C 274.13 142.56 274.03 138.54 273.95 135.05 C 273.95 122.39 274.07 109.73 273.95 97.07 C 267.93 96.94 261.91 96.93 255.90 97.09 Z" />
</g>
</svg>
