<?xml version="1.0" encoding="UTF-8" ?>
<!DOCTYPE svg PUBLIC "-//W3C//DTD SVG 1.1//EN" "http://www.w3.org/Graphics/SVG/1.1/DTD/svg11.dtd">
<svg width="283pt" height="368pt" viewBox="0 0 283 368" version="1.1" xmlns="http://www.w3.org/2000/svg">
<g id="#ff0000ff">
<path fill="#ff0000" opacity="1.00" d=" M 1.15 0.60 C 28.43 0.36 55.72 0.57 83.00 0.50 C 149.04 0.56 215.08 0.39 281.11 0.59 C 268.59 34.66 254.97 68.34 242.68 102.50 C 224.48 149.46 207.12 196.76 188.56 243.58 C 172.86 285.07 156.68 326.39 141.33 368.00 L 140.96 368.00 C 136.63 354.73 131.11 341.87 126.32 328.75 C 112.88 293.83 99.92 258.73 86.05 223.98 C 71.49 185.88 57.07 147.73 42.45 109.65 C 39.89 103.11 37.42 96.53 35.16 89.88 C 23.90 60.09 12.45 30.37 1.15 0.60 M 16.35 11.09 C 22.27 26.19 26.74 41.86 33.51 56.62 C 36.28 64.16 38.94 71.75 41.97 79.20 C 44.08 84.32 45.60 89.70 48.24 94.60 C 110.28 94.51 172.31 94.70 234.34 94.50 C 239.90 81.45 244.57 68.04 249.62 54.78 C 256.07 40.59 260.33 25.55 266.05 11.07 C 182.82 11.15 99.59 11.10 16.35 11.09 M 101.28 233.52 C 105.76 244.15 108.49 255.38 113.25 265.91 C 118.64 281.26 124.94 296.28 130.68 311.50 C 134.38 320.30 137.23 329.45 141.33 338.09 C 149.49 317.35 157.52 296.57 165.55 275.78 C 167.72 268.84 170.82 262.25 173.34 255.45 C 175.26 247.94 178.40 240.85 181.01 233.58 C 154.44 233.51 127.86 233.62 101.28 233.52 Z" />
</g>
</svg>
