<?xml version="1.0" encoding="UTF-8" ?>
<!DOCTYPE svg PUBLIC "-//W3C//DTD SVG 1.1//EN" "http://www.w3.org/Graphics/SVG/1.1/DTD/svg11.dtd">
<svg width="512pt" height="512pt" viewBox="0 0 512 512" version="1.1" xmlns="http://www.w3.org/2000/svg">
<g id="#ff0000ff">
<path fill="#ff0000" opacity="1.00" d=" M 117.39 84.08 C 135.42 83.98 153.45 84.08 171.47 84.03 C 171.50 101.72 171.55 119.41 171.44 137.10 C 189.20 137.62 207.00 137.27 224.77 137.28 C 224.80 119.53 224.74 101.78 224.80 84.03 C 244.97 83.99 265.13 83.97 285.30 84.04 C 285.36 101.76 285.32 119.48 285.31 137.20 C 303.01 137.50 320.72 137.29 338.42 137.31 C 338.50 119.57 338.46 101.82 338.44 84.08 C 357.72 84.05 377.01 83.94 396.30 84.13 C 396.32 131.43 396.32 178.72 396.30 226.01 C 396.03 231.02 397.04 235.98 396.89 240.99 C 396.84 260.00 396.91 279.01 396.86 298.03 C 395.50 311.32 397.07 324.75 395.92 338.05 C 393.89 358.69 383.07 377.30 369.71 392.71 C 345.00 421.15 312.98 441.92 280.56 460.51 C 273.83 464.21 266.98 467.69 260.08 471.06 C 258.10 472.13 255.70 472.36 253.69 471.28 C 240.83 465.13 228.30 458.31 216.22 450.74 C 191.98 436.14 168.67 419.48 149.12 398.89 C 133.58 382.23 119.79 362.04 117.60 338.76 C 117.03 324.85 117.89 310.91 117.04 297.01 C 117.21 273.67 116.66 250.32 117.43 227.00 C 117.39 179.36 117.45 131.72 117.39 84.08 M 127.39 94.08 C 127.47 140.74 127.38 187.39 127.44 234.04 C 132.62 234.39 137.81 234.18 143.00 234.23 C 170.25 234.19 197.50 234.31 224.75 234.17 C 224.85 205.46 224.74 176.75 224.80 148.04 C 208.18 147.96 191.56 148.02 174.93 148.02 C 171.70 148.05 168.25 147.47 165.77 145.24 C 162.33 142.67 161.51 138.08 161.48 134.05 C 161.49 120.71 161.52 107.38 161.47 94.05 C 150.11 94.06 138.75 93.99 127.39 94.08 M 348.43 94.09 C 348.51 107.06 348.42 120.02 348.49 132.99 C 348.53 136.05 348.23 139.21 346.91 142.00 C 344.86 145.94 340.39 148.09 336.05 148.00 C 319.29 148.09 302.53 147.87 285.78 148.10 C 285.76 176.79 285.72 205.48 285.80 234.18 C 319.12 234.27 352.45 234.25 385.78 234.18 C 385.96 187.47 385.78 140.76 385.87 94.05 C 373.39 94.06 360.91 93.98 348.43 94.09 M 127.46 301.50 C 127.41 313.32 127.34 325.15 127.49 336.97 C 128.68 352.83 136.44 367.53 146.32 379.71 C 156.20 392.98 168.29 404.57 181.55 414.43 C 195.07 425.54 209.59 435.41 224.75 444.15 C 224.85 396.62 224.74 349.08 224.81 301.55 C 192.36 301.40 159.91 301.48 127.46 301.50 M 285.78 301.54 C 285.76 349.42 285.69 397.30 285.81 445.19 C 292.02 442.62 297.50 438.68 303.23 435.24 C 314.14 427.96 324.94 420.45 334.91 411.90 C 346.67 403.17 357.07 392.62 365.98 381.00 C 377.64 367.09 386.61 349.55 385.86 330.99 C 385.83 321.17 385.87 311.35 385.85 301.53 C 352.49 301.44 319.13 301.42 285.78 301.54 Z" />
</g>
</svg>
