<?xml version="1.0" encoding="UTF-8" ?>
<!DOCTYPE svg PUBLIC "-//W3C//DTD SVG 1.1//EN" "http://www.w3.org/Graphics/SVG/1.1/DTD/svg11.dtd">
<svg width="512pt" height="512pt" viewBox="0 0 512 512" version="1.1" xmlns="http://www.w3.org/2000/svg">
<g id="#ff0000ff">
<path fill="#ff0000" opacity="1.00" d=" M 120.15 85.30 C 137.95 85.36 155.74 85.27 173.54 85.35 C 173.75 103.11 173.20 120.88 173.80 138.63 C 190.94 138.63 208.08 138.61 225.22 138.65 C 225.82 120.87 225.27 103.06 225.48 85.27 C 245.21 85.08 264.94 85.14 284.67 85.24 C 285.06 103.03 284.38 120.83 285.00 138.61 C 302.19 138.63 319.38 138.64 336.58 138.61 C 336.76 120.85 336.25 103.08 336.81 85.33 C 355.42 85.32 374.03 85.30 392.63 85.34 C 392.80 136.56 392.61 187.78 392.72 239.00 C 393.75 252.64 393.14 266.33 393.30 280.00 C 393.20 288.66 393.51 297.33 393.15 305.99 C 391.89 319.64 393.73 333.42 391.66 347.02 C 387.42 381.36 369.32 413.69 342.38 435.38 C 326.66 448.23 307.97 457.34 288.25 462.16 C 281.24 464.09 274.01 464.95 266.88 466.32 C 258.20 467.43 249.33 467.16 240.78 465.27 C 213.71 461.45 187.50 450.23 166.98 432.02 C 145.58 413.31 130.18 387.74 124.02 359.96 C 122.03 349.75 119.88 339.46 120.01 329.00 C 120.00 272.67 120.01 216.33 120.01 160.00 C 120.11 135.10 119.80 110.19 120.15 85.30 M 130.04 97.05 C 130.03 145.94 129.90 194.84 130.11 243.74 C 161.96 243.70 193.81 243.77 225.66 243.70 C 225.68 212.08 225.65 180.46 225.67 148.83 C 211.79 148.36 197.89 148.73 184.01 148.65 C 178.56 148.52 172.53 149.41 167.71 146.30 C 164.09 143.83 163.67 139.01 163.53 135.02 C 163.53 122.40 163.54 109.77 163.59 97.14 C 152.41 96.87 141.22 97.02 130.04 97.05 M 347.05 97.05 C 346.93 109.72 347.07 122.39 347.06 135.06 C 346.95 138.11 346.93 141.44 345.10 144.03 C 342.76 147.12 338.81 148.72 335.00 148.73 C 318.59 148.62 302.18 148.49 285.78 148.75 C 285.66 180.40 285.50 212.06 285.85 243.71 C 318.12 243.72 350.39 243.77 382.66 243.69 C 382.73 194.83 382.66 145.97 382.70 97.12 C 370.82 96.90 358.93 97.01 347.05 97.05 M 130.12 308.32 C 129.70 318.25 129.95 328.17 131.13 338.03 C 131.59 356.07 137.86 373.29 145.60 389.38 C 153.36 403.03 163.16 415.65 175.16 425.84 C 185.43 433.98 196.45 441.38 208.63 446.34 C 214.16 448.38 219.87 449.96 225.63 451.22 C 225.71 403.60 225.66 355.97 225.65 308.35 C 193.81 308.32 161.97 308.37 130.12 308.32 M 285.88 308.34 C 285.39 326.22 285.81 344.11 285.67 362.00 C 285.76 392.00 285.50 422.00 285.80 452.00 C 297.18 449.31 308.44 445.65 318.50 439.56 C 328.70 433.41 338.56 426.47 346.75 417.75 C 357.28 406.49 366.86 393.85 372.16 379.24 C 376.43 369.69 379.72 359.65 381.13 349.26 C 383.54 335.75 382.51 322.00 382.65 308.36 C 350.40 308.31 318.14 308.36 285.88 308.34 Z" />
</g>
</svg>
