<?xml version="1.0" encoding="UTF-8" ?>
<!DOCTYPE svg PUBLIC "-//W3C//DTD SVG 1.1//EN" "http://www.w3.org/Graphics/SVG/1.1/DTD/svg11.dtd">
<svg width="512pt" height="512pt" viewBox="0 0 512 512" version="1.1" xmlns="http://www.w3.org/2000/svg">
<g id="#ff0000ff">
<path fill="#ff0000" opacity="1.00" d=" M 119.70 85.38 C 151.47 85.45 183.23 85.41 215.00 85.40 C 229.66 84.96 244.33 85.23 259.00 85.16 C 272.00 85.22 285.01 84.98 298.00 85.40 C 329.43 85.41 360.86 85.45 392.30 85.38 C 392.74 127.91 392.28 170.46 392.52 213.00 C 393.23 223.32 392.90 233.66 392.96 244.00 C 392.93 257.68 393.02 271.37 392.93 285.05 C 392.08 299.68 392.60 314.35 392.49 329.00 C 392.89 364.40 378.72 399.66 353.94 424.94 C 332.57 447.16 303.42 461.48 272.95 465.70 C 262.08 467.41 250.90 467.42 240.01 465.84 C 209.91 461.80 181.01 448.04 159.55 426.45 C 139.48 406.41 125.80 380.03 121.33 352.00 C 118.31 334.14 119.93 315.98 119.54 297.98 C 118.59 275.67 119.22 253.33 119.03 231.00 C 118.92 224.99 119.13 218.99 119.48 213.00 C 119.72 170.46 119.26 127.91 119.70 85.38 M 129.60 96.12 C 129.51 136.45 129.45 176.77 129.63 217.10 C 159.85 217.18 190.07 217.32 220.29 217.03 C 220.41 176.74 220.41 136.45 220.29 96.16 C 190.06 96.06 159.83 96.14 129.60 96.12 M 293.05 96.16 C 292.57 128.44 292.98 160.73 292.85 193.01 C 292.89 200.99 292.65 208.99 293.10 216.97 C 322.85 217.39 352.62 217.15 382.37 217.10 C 382.55 176.77 382.49 136.45 382.40 96.12 C 352.62 96.14 322.84 96.06 293.05 96.16 M 129.63 289.74 C 129.41 303.16 129.60 316.58 129.51 330.01 C 129.49 367.16 146.88 403.82 175.59 427.38 C 188.90 437.76 203.62 446.97 220.27 450.75 C 220.45 397.08 220.39 343.41 220.29 289.74 C 190.07 289.65 159.85 289.65 129.63 289.74 M 293.12 289.76 C 292.49 315.50 293.02 341.26 292.85 367.00 C 293.02 394.78 292.49 422.56 293.12 450.33 C 297.26 449.12 301.47 448.08 305.46 446.41 C 331.72 435.01 353.91 414.66 367.57 389.50 C 376.51 371.67 382.33 352.06 382.48 332.00 C 382.41 317.91 382.58 303.83 382.37 289.74 C 352.62 289.66 322.87 289.62 293.12 289.76 Z" />
</g>
</svg>
