<?xml version="1.0" encoding="UTF-8" ?>
<!DOCTYPE svg PUBLIC "-//W3C//DTD SVG 1.1//EN" "http://www.w3.org/Graphics/SVG/1.1/DTD/svg11.dtd">
<svg width="512pt" height="512pt" viewBox="0 0 512 512" version="1.1" xmlns="http://www.w3.org/2000/svg">
<g id="#ff0000ff">
<path fill="#ff0000" opacity="1.00" d=" M 242.41 54.76 C 257.36 52.12 272.98 54.00 286.94 59.91 C 303.66 66.86 317.74 78.96 329.32 92.68 C 349.85 117.38 362.75 147.54 370.87 178.39 C 373.11 187.80 375.80 197.13 377.06 206.75 C 378.74 216.13 379.42 225.63 380.42 235.09 C 382.31 242.23 381.85 249.69 381.94 257.00 C 381.85 264.20 382.23 271.45 381.31 278.61 C 379.54 285.28 379.85 292.25 378.81 299.04 C 377.42 309.44 376.08 319.92 373.21 330.05 C 367.54 355.09 358.83 379.60 345.85 401.83 C 336.43 417.78 324.76 432.62 310.22 444.22 C 295.24 456.35 276.46 464.43 256.99 464.48 C 238.07 464.90 219.54 457.74 204.59 446.40 C 184.63 431.38 169.81 410.49 158.87 388.24 C 149.79 369.77 143.34 350.09 138.79 330.05 C 135.92 319.92 134.58 309.44 133.19 299.03 C 132.15 292.25 132.46 285.28 130.68 278.61 C 129.82 272.11 130.12 265.53 130.06 259.00 C 130.13 252.34 129.82 245.63 130.73 239.03 C 131.85 234.91 132.12 230.63 132.43 226.40 C 134.58 201.61 140.54 177.28 148.72 153.82 C 158.52 127.05 172.61 101.23 193.31 81.31 C 206.83 68.21 223.71 58.07 242.41 54.76 M 239.09 64.24 C 226.24 67.30 214.31 73.71 204.28 82.28 C 198.92 86.22 194.96 91.63 190.30 96.32 C 181.48 106.58 173.81 117.95 168.33 130.35 C 165.80 135.23 163.43 140.19 161.30 145.25 C 157.87 150.68 156.13 156.90 154.08 162.93 C 150.89 172.50 148.43 182.29 146.19 192.13 C 219.40 192.21 292.60 192.21 365.81 192.13 C 364.44 186.73 363.35 181.27 361.86 175.91 C 358.50 165.32 356.04 154.24 350.37 144.57 C 347.83 138.00 344.21 131.93 341.41 125.47 C 333.81 110.28 323.08 96.87 311.00 85.01 C 299.89 75.13 286.69 67.18 272.02 64.08 C 268.01 63.47 264.03 62.71 260.02 62.12 C 252.95 61.28 246.03 63.24 239.09 64.24 M 146.20 325.87 C 149.35 340.23 153.31 354.49 158.77 368.16 C 162.39 373.93 164.54 380.41 167.64 386.45 C 173.54 399.95 181.92 412.31 191.74 423.27 C 202.75 436.78 217.67 447.16 234.24 452.62 C 240.05 454.20 246.01 455.20 251.97 455.96 C 268.64 456.60 285.42 451.59 299.20 442.20 C 309.25 435.83 317.48 427.11 324.86 417.87 C 332.69 408.31 339.42 397.79 344.36 386.45 C 347.46 380.41 349.61 373.93 353.23 368.16 C 358.69 354.50 362.65 340.24 365.80 325.87 C 292.60 325.79 219.40 325.79 146.20 325.87 Z" />
</g>
</svg>
