<?xml version="1.0" encoding="UTF-8" ?>
<!DOCTYPE svg PUBLIC "-//W3C//DTD SVG 1.1//EN" "http://www.w3.org/Graphics/SVG/1.1/DTD/svg11.dtd">
<svg width="512pt" height="512pt" viewBox="0 0 512 512" version="1.1" xmlns="http://www.w3.org/2000/svg">
<g id="#ff0000ff">
<path fill="#ff0000" opacity="1.00" d=" M 120.11 85.27 C 137.91 85.37 155.70 85.31 173.50 85.31 C 173.53 102.98 173.66 120.66 173.43 138.33 C 190.67 139.03 207.98 138.40 225.25 138.64 C 225.56 120.84 225.14 103.02 225.47 85.22 C 245.32 85.18 265.18 85.02 285.03 85.30 C 285.77 103.03 285.08 120.83 285.37 138.58 C 302.44 138.66 319.50 138.60 336.56 138.62 C 336.65 120.85 336.43 103.08 336.67 85.32 C 355.32 85.31 373.97 85.34 392.62 85.30 C 392.79 167.20 392.64 249.11 392.70 331.01 C 392.66 369.81 374.71 408.08 345.09 433.11 C 326.13 449.57 302.41 460.08 277.77 464.43 C 273.64 464.89 269.56 465.66 265.50 466.55 C 259.36 467.07 253.13 467.12 247.00 466.43 C 239.21 464.52 231.08 464.25 223.40 461.74 C 198.51 455.35 175.42 441.96 157.82 423.18 C 139.15 403.57 126.57 378.22 122.37 351.46 C 121.38 344.32 119.79 337.26 120.01 330.01 C 120.07 248.43 119.87 166.85 120.11 85.27 M 130.01 97.02 C 130.01 170.01 130.01 243.01 130.01 316.00 C 130.07 321.74 129.59 327.55 130.82 333.21 C 131.37 341.84 131.72 350.60 134.15 358.98 C 136.21 368.68 140.57 377.64 144.25 386.80 C 152.19 401.72 162.76 415.37 175.70 426.30 C 183.72 432.47 192.01 438.41 201.12 442.89 C 208.56 447.15 216.99 448.83 225.08 451.38 C 225.18 350.48 225.13 249.58 225.10 148.67 C 209.06 148.56 193.01 148.64 176.97 148.64 C 173.33 148.59 169.36 147.96 166.58 145.41 C 164.03 142.64 163.58 138.63 163.52 135.03 C 163.56 122.37 163.51 109.72 163.56 97.06 C 152.38 96.96 141.19 97.04 130.01 97.02 M 347.02 97.02 C 347.02 108.68 347.02 120.34 347.04 132.00 C 347.01 135.59 347.32 139.35 345.89 142.74 C 344.18 146.22 340.33 148.07 336.67 148.71 C 319.74 148.56 302.78 148.61 285.84 148.66 C 285.79 249.80 285.77 350.95 285.85 452.09 C 292.78 449.97 299.97 448.57 306.58 445.52 C 314.46 442.19 321.93 437.88 328.83 432.83 C 345.50 421.67 358.59 405.78 368.36 388.40 C 370.20 384.51 371.43 380.37 373.32 376.51 C 379.20 363.43 381.82 349.15 382.67 334.91 C 382.72 255.62 382.66 176.33 382.71 97.05 C 370.81 96.98 358.91 97.03 347.02 97.02 Z" />
</g>
</svg>
