<?xml version="1.0" encoding="UTF-8" ?>
<!DOCTYPE svg PUBLIC "-//W3C//DTD SVG 1.1//EN" "http://www.w3.org/Graphics/SVG/1.1/DTD/svg11.dtd">
<svg width="512pt" height="512pt" viewBox="0 0 512 512" version="1.1" xmlns="http://www.w3.org/2000/svg">
<g id="#ff0000ff">
<path fill="#ff0000" opacity="1.00" d=" M 135.29 75.32 C 215.76 75.36 296.24 75.36 376.71 75.33 C 376.87 112.54 376.59 149.76 376.85 186.98 C 377.22 270.98 376.56 354.97 376.78 438.97 C 296.26 439.02 215.74 439.02 135.22 438.97 C 135.20 401.65 135.41 364.34 135.11 327.02 C 134.92 284.02 135.10 241.01 135.02 198.00 C 135.51 157.11 135.09 116.22 135.29 75.32 M 145.23 86.10 C 145.27 119.55 145.27 153.00 145.23 186.45 C 174.49 186.81 203.75 186.50 233.00 186.60 C 277.59 186.50 322.18 186.81 366.77 186.45 C 366.73 153.00 366.73 119.55 366.77 86.10 C 292.92 86.06 219.08 86.06 145.23 86.10 M 145.23 328.54 C 145.27 362.01 145.26 395.48 145.24 428.95 C 219.08 429.03 292.92 429.03 366.76 428.95 C 366.74 395.48 366.73 362.01 366.77 328.54 C 331.52 328.17 296.26 328.49 261.00 328.38 C 222.41 328.49 183.82 328.17 145.23 328.54 Z" />
</g>
</svg>
