<?xml version="1.0" encoding="UTF-8" ?>
<!DOCTYPE svg PUBLIC "-//W3C//DTD SVG 1.1//EN" "http://www.w3.org/Graphics/SVG/1.1/DTD/svg11.dtd">
<svg width="512pt" height="512pt" viewBox="0 0 512 512" version="1.1" xmlns="http://www.w3.org/2000/svg">
<g id="#ff0000ff">
<path fill="#ff0000" opacity="1.00" d=" M 206.01 75.32 C 222.33 74.70 238.67 75.13 255.00 75.00 C 271.66 75.13 288.34 74.70 304.99 75.31 C 328.91 75.49 352.83 75.10 376.74 75.50 C 376.77 196.65 376.74 317.80 376.76 438.96 C 296.25 439.03 215.75 439.03 135.24 438.96 C 135.26 317.80 135.23 196.65 135.26 75.49 C 158.84 75.11 182.42 75.48 206.01 75.32 M 145.25 86.11 C 145.25 200.39 145.24 314.66 145.26 428.94 C 167.01 429.06 188.76 428.99 210.50 428.97 C 210.73 418.65 210.54 408.32 210.60 398.00 C 210.52 294.03 210.75 190.06 210.49 86.09 C 188.74 86.07 167.00 86.03 145.25 86.11 M 300.31 86.23 C 300.32 200.43 300.34 314.63 300.30 428.83 C 322.44 429.18 344.59 428.97 366.74 428.94 C 366.76 314.66 366.75 200.39 366.74 86.11 C 344.60 86.11 322.45 85.90 300.31 86.23 Z" />
</g>
</svg>
