<?xml version="1.0" encoding="UTF-8" ?>
<!DOCTYPE svg PUBLIC "-//W3C//DTD SVG 1.1//EN" "http://www.w3.org/Graphics/SVG/1.1/DTD/svg11.dtd">
<svg width="512pt" height="512pt" viewBox="0 0 512 512" version="1.1" xmlns="http://www.w3.org/2000/svg">
<g id="#ff0000ff">
<path fill="#ff0000" opacity="1.00" d=" M 132.37 77.29 C 166.25 77.21 200.12 77.28 234.00 77.26 C 243.00 77.22 252.00 77.40 260.99 77.01 C 301.33 77.00 341.66 77.01 382.00 77.00 C 381.95 147.67 382.11 218.34 381.83 289.00 C 381.71 339.14 382.08 389.30 381.65 439.43 C 340.33 408.14 298.62 377.36 257.13 346.31 C 215.50 377.40 173.83 408.46 132.21 439.56 C 131.74 417.38 132.15 395.19 132.01 373.00 C 132.01 341.34 132.01 309.67 132.01 278.00 C 132.05 269.99 131.81 261.98 132.37 253.98 C 132.39 195.09 132.38 136.19 132.37 77.29 M 143.08 88.02 C 143.13 144.58 143.08 201.13 143.10 257.68 C 181.00 257.64 218.91 257.76 256.81 257.62 C 256.87 283.62 256.78 309.62 256.85 335.62 C 259.16 336.33 261.64 336.80 263.58 338.33 C 273.69 345.90 283.64 353.68 293.86 361.11 C 307.50 370.33 319.78 381.40 333.56 390.41 C 346.45 399.72 358.47 410.21 371.84 418.85 C 371.79 365.13 371.88 311.40 371.79 257.67 C 333.53 257.70 295.26 257.68 257.00 257.68 C 256.71 252.46 256.85 247.23 256.83 242.00 C 256.83 190.68 256.82 139.36 256.83 88.04 C 218.91 88.03 181.00 88.06 143.08 88.02 Z" />
</g>
</svg>
