<?xml version="1.0" encoding="UTF-8" ?>
<!DOCTYPE svg PUBLIC "-//W3C//DTD SVG 1.1//EN" "http://www.w3.org/Graphics/SVG/1.1/DTD/svg11.dtd">
<svg width="512pt" height="512pt" viewBox="0 0 512 512" version="1.1" xmlns="http://www.w3.org/2000/svg">
<g id="#00ff00ff">
<path fill="#00ff00" opacity="1.00" d=" M 120.05 85.05 C 138.09 84.97 156.13 84.93 174.17 85.08 C 174.54 102.64 174.17 120.21 174.33 137.77 C 191.20 137.98 208.07 137.84 224.93 137.84 C 225.18 120.25 224.84 102.66 225.07 85.06 C 245.03 84.95 264.99 84.96 284.94 85.05 C 285.15 102.65 284.84 120.25 285.07 137.84 C 302.02 137.89 318.98 137.88 335.93 137.84 C 336.17 120.25 335.84 102.65 336.06 85.06 C 355.02 84.95 373.98 84.96 392.95 85.05 C 393.08 167.37 392.94 249.68 393.02 332.00 C 393.82 354.48 386.62 376.52 376.19 396.20 C 368.25 410.60 357.33 423.21 345.02 434.06 C 331.29 445.21 315.89 454.71 298.80 459.71 C 289.34 462.96 279.38 464.25 269.70 466.66 C 261.14 467.28 252.48 467.18 243.91 466.76 C 233.03 464.17 221.90 462.48 211.35 458.66 C 194.91 453.40 180.23 443.86 167.01 432.95 C 160.43 427.53 154.97 420.96 149.48 414.48 C 134.93 396.39 125.55 374.36 121.50 351.56 C 120.63 347.10 119.93 342.58 119.98 338.02 C 120.07 253.70 119.91 169.37 120.05 85.05 Z" />
</g>
</svg>
