<?xml version="1.0" encoding="UTF-8" ?>
<!DOCTYPE svg PUBLIC "-//W3C//DTD SVG 1.1//EN" "http://www.w3.org/Graphics/SVG/1.1/DTD/svg11.dtd">
<svg width="512pt" height="512pt" viewBox="0 0 512 512" version="1.1" xmlns="http://www.w3.org/2000/svg">
<g id="#ff0000ff">
<path fill="#ff0000" opacity="1.00" d=" M 119.75 85.41 C 210.58 85.42 301.42 85.42 392.25 85.41 C 392.77 107.60 392.32 129.80 392.47 152.00 C 392.62 167.31 392.08 182.65 392.94 197.95 C 392.98 242.32 392.98 286.69 392.95 331.07 C 391.86 352.98 386.96 374.99 376.34 394.35 C 358.26 428.36 325.17 453.98 287.62 462.69 C 271.82 466.17 255.40 468.37 239.33 465.39 C 209.15 461.72 180.39 447.60 159.05 425.95 C 139.65 406.37 126.29 380.84 121.61 353.65 C 120.40 345.15 119.00 336.62 119.02 328.01 C 119.05 285.33 119.04 242.65 119.03 199.96 C 119.01 194.98 119.57 190.02 119.54 185.03 C 119.52 158.36 119.53 131.68 119.53 105.00 C 119.53 98.47 119.38 91.93 119.75 85.41 M 129.63 96.15 C 129.46 128.23 129.47 160.31 129.63 192.39 C 165.75 192.63 201.88 192.42 238.00 192.49 C 286.12 192.42 334.25 192.63 382.37 192.39 C 382.53 160.31 382.54 128.23 382.37 96.15 C 298.12 96.10 213.88 96.10 129.63 96.15 M 130.01 337.47 C 130.72 359.04 138.38 380.03 149.71 398.25 C 158.15 410.82 168.29 422.48 180.72 431.26 C 189.86 437.87 199.55 443.95 210.23 447.75 C 216.90 449.87 223.57 452.03 230.40 453.56 C 247.51 456.95 265.34 456.92 282.43 453.39 C 289.72 451.59 296.92 449.42 304.01 446.97 C 317.96 441.34 330.55 432.71 341.77 422.77 C 354.53 410.40 365.79 395.97 372.16 379.24 C 377.89 366.07 381.65 351.88 382.01 337.47 C 298.01 337.47 214.01 337.48 130.01 337.47 Z" />
</g>
</svg>
