<?xml version="1.0" encoding="UTF-8" ?>
<!DOCTYPE svg PUBLIC "-//W3C//DTD SVG 1.1//EN" "http://www.w3.org/Graphics/SVG/1.1/DTD/svg11.dtd">
<svg width="512pt" height="512pt" viewBox="0 0 512 512" version="1.1" xmlns="http://www.w3.org/2000/svg">
<g id="#ff0000ff">
<path fill="#ff0000" opacity="1.00" d=" M 132.03 77.04 C 169.02 76.96 206.01 77.04 243.00 77.00 C 289.26 77.54 335.53 77.12 381.80 77.27 C 381.87 160.85 381.81 244.42 381.83 328.00 C 381.73 365.08 382.02 402.15 381.69 439.23 C 340.07 408.38 298.76 377.11 257.05 346.39 C 215.40 377.37 173.90 408.55 132.20 439.47 C 131.81 432.32 132.06 425.16 132.01 418.00 C 132.03 304.35 131.98 190.69 132.03 77.04 M 255.90 88.08 C 255.72 141.06 255.87 194.03 255.82 247.00 C 255.95 276.50 255.57 306.00 256.00 335.49 C 259.32 336.32 262.63 337.44 265.33 339.62 C 276.17 347.80 286.85 356.21 297.98 364.00 C 309.83 372.43 320.84 381.98 332.96 390.04 C 346.13 399.35 358.23 410.11 371.82 418.83 C 371.83 308.58 371.82 198.33 371.82 88.08 C 333.18 88.01 294.54 88.01 255.90 88.08 Z" />
</g>
</svg>
