<?xml version="1.0" encoding="UTF-8" ?>
<!DOCTYPE svg PUBLIC "-//W3C//DTD SVG 1.1//EN" "http://www.w3.org/Graphics/SVG/1.1/DTD/svg11.dtd">
<svg width="283pt" height="369pt" viewBox="0 0 283 369" version="1.1" xmlns="http://www.w3.org/2000/svg">
<g id="#ff0000ff">
<path fill="#ff0000" opacity="1.00" d=" M 0.80 0.00 L 283.00 0.00 L 283.00 1.69 C 280.25 4.72 278.26 8.31 277.15 12.24 C 260.73 55.73 244.07 99.13 227.51 142.56 C 216.54 168.96 206.96 195.92 196.57 222.56 C 181.23 262.86 165.78 303.12 150.47 343.44 C 147.34 351.49 144.50 359.66 141.05 367.60 C 137.76 360.43 135.19 352.98 132.34 345.64 C 107.96 281.71 83.53 217.79 59.20 153.85 C 55.89 143.98 52.21 134.26 48.42 124.56 C 32.50 83.06 16.89 41.43 0.80 0.00 M 16.26 11.10 C 19.75 18.89 22.03 27.12 24.94 35.12 C 27.86 42.80 30.75 50.48 34.02 58.01 C 39.12 72.07 44.44 86.04 50.21 99.84 C 54.47 111.17 58.72 122.50 63.27 133.72 C 65.26 138.49 65.86 144.01 69.15 148.13 C 72.08 148.51 75.05 148.35 78.00 148.36 C 99.07 148.24 120.15 148.45 141.22 148.26 C 141.32 102.55 141.38 56.84 141.19 11.14 C 99.55 11.08 57.91 11.15 16.26 11.10 M 141.34 148.37 C 141.26 211.60 141.28 274.84 141.33 338.08 C 143.75 331.93 146.24 325.80 148.61 319.63 C 154.62 303.13 161.63 287.01 167.42 270.43 C 169.37 264.82 172.12 259.52 173.79 253.81 C 175.75 246.81 178.54 240.08 181.30 233.36 C 186.71 218.85 192.69 204.56 197.96 189.99 C 203.43 176.18 209.11 162.43 213.84 148.33 C 189.67 148.45 165.51 148.38 141.34 148.37 Z" />
</g>
</svg>
