<?xml version="1.0" encoding="UTF-8" ?>
<!DOCTYPE svg PUBLIC "-//W3C//DTD SVG 1.1//EN" "http://www.w3.org/Graphics/SVG/1.1/DTD/svg11.dtd">
<svg width="512pt" height="512pt" viewBox="0 0 512 512" version="1.1" xmlns="http://www.w3.org/2000/svg">
<g id="#ff0000ff">
<path fill="#ff0000" opacity="1.00" d=" M 256.22 56.38 C 286.81 76.62 317.54 96.67 348.19 116.81 C 363.91 127.30 379.93 137.34 395.48 148.05 C 388.85 204.41 381.55 260.69 374.81 317.03 C 371.25 344.55 368.10 372.11 364.48 399.62 C 352.75 406.33 340.49 412.11 328.59 418.52 C 304.77 431.00 280.79 443.17 257.10 455.90 C 241.81 446.94 225.94 439.01 210.40 430.50 C 192.19 420.73 173.95 410.98 155.74 401.22 C 153.65 400.37 152.98 398.25 152.79 396.20 C 142.27 322.70 131.64 249.22 121.10 175.72 C 119.71 166.57 118.92 157.27 116.12 148.41 C 151.09 125.65 185.89 102.65 220.80 79.80 C 232.59 71.97 244.55 64.40 256.22 56.38 M 255.99 68.51 C 255.54 76.67 255.88 84.84 255.78 93.00 C 255.78 204.33 255.78 315.67 255.78 427.00 C 255.79 432.75 255.52 438.52 256.22 444.24 C 262.68 442.21 268.30 438.32 274.39 435.45 C 298.30 423.03 322.21 410.60 346.10 398.16 C 349.10 396.56 352.39 395.36 355.01 393.16 C 356.35 388.55 356.42 383.69 356.96 378.95 C 366.34 304.59 375.28 230.17 384.59 155.80 C 384.68 154.34 384.90 152.48 383.26 151.78 C 350.47 130.21 317.61 108.73 284.85 87.12 C 275.12 81.09 265.87 74.29 255.99 68.51 Z" />
</g>
</svg>
