<?xml version="1.0" encoding="UTF-8" ?>
<!DOCTYPE svg PUBLIC "-//W3C//DTD SVG 1.1//EN" "http://www.w3.org/Graphics/SVG/1.1/DTD/svg11.dtd">
<svg width="512pt" height="512pt" viewBox="0 0 512 512" version="1.1" xmlns="http://www.w3.org/2000/svg">
<g id="#ff0000ff">
<path fill="#ff0000" opacity="1.00" d=" M 240.50 68.04 C 249.62 66.72 258.90 67.29 268.08 67.43 C 280.22 68.98 292.46 70.35 304.29 73.63 C 341.69 83.22 375.79 104.86 400.66 134.36 C 416.12 152.59 428.10 173.80 435.58 196.51 C 439.97 208.20 442.40 220.53 444.05 232.87 C 445.55 242.17 444.83 251.62 445.00 261.00 C 445.44 276.13 442.60 291.15 438.82 305.74 C 433.67 323.00 426.69 339.78 417.14 355.09 C 397.24 387.35 367.41 413.38 332.70 428.63 C 315.03 436.40 296.17 441.40 276.99 443.52 C 267.78 445.33 258.34 444.77 249.01 444.76 C 242.60 444.89 236.34 443.34 230.00 442.66 C 193.76 437.58 159.14 421.55 131.84 397.18 C 87.46 358.28 62.92 297.60 68.75 238.79 C 72.64 198.11 90.11 158.85 117.77 128.77 C 145.77 97.97 184.29 76.94 225.37 70.18 C 230.38 69.26 235.47 68.82 240.50 68.04 M 212.90 83.04 C 206.84 84.21 201.04 86.38 195.25 88.46 C 184.70 92.86 173.97 97.03 164.45 103.48 C 128.19 124.95 100.63 160.14 87.33 200.03 C 200.29 199.93 313.25 200.08 426.21 199.96 C 424.24 193.76 421.35 187.93 419.04 181.87 C 401.90 144.23 371.20 113.05 333.96 95.12 C 323.15 90.54 312.40 85.51 300.83 83.12 C 293.53 81.90 286.34 80.06 279.00 79.07 C 269.40 77.59 259.66 78.11 250.00 78.04 C 237.45 77.85 225.14 80.64 212.90 83.04 M 87.33 311.97 C 89.61 318.45 92.12 324.86 94.86 331.17 C 98.28 339.05 103.17 346.15 107.29 353.66 C 118.09 369.18 130.36 383.98 145.56 395.42 C 149.69 398.64 153.65 402.14 158.16 404.84 C 164.21 408.00 169.58 412.32 175.81 415.16 C 186.84 420.17 197.90 425.34 209.69 428.33 C 223.34 431.01 236.99 434.37 251.00 434.11 C 256.33 435.58 261.63 433.74 267.00 433.93 C 277.09 433.85 287.02 431.71 296.89 429.79 C 307.36 427.97 317.44 424.34 327.07 419.89 C 335.38 416.71 343.26 412.53 350.64 407.56 C 356.87 404.43 362.23 399.93 367.71 395.68 C 394.86 374.33 415.31 344.79 426.20 312.04 C 313.24 311.91 200.29 312.05 87.33 311.97 Z" />
</g>
</svg>
