<?xml version="1.0" encoding="UTF-8" ?>
<!DOCTYPE svg PUBLIC "-//W3C//DTD SVG 1.1//EN" "http://www.w3.org/Graphics/SVG/1.1/DTD/svg11.dtd">
<svg width="512pt" height="512pt" viewBox="0 0 512 512" version="1.1" xmlns="http://www.w3.org/2000/svg">
<g id="#ff0000ff">
<path fill="#ff0000" opacity="1.00" d=" M 120.11 85.27 C 137.92 85.38 155.74 85.30 173.56 85.31 C 173.63 103.09 173.34 120.88 173.71 138.66 C 191.03 138.60 208.34 138.61 225.66 138.65 C 225.74 120.86 225.47 103.08 225.80 85.30 C 245.43 85.48 265.07 85.02 284.70 85.20 C 284.88 102.93 284.67 120.66 284.81 138.39 C 301.95 138.47 319.10 138.47 336.24 138.39 C 336.39 120.67 336.18 102.94 336.34 85.21 C 355.25 85.14 374.16 85.12 393.07 85.22 C 393.61 113.47 393.15 141.74 393.30 170.00 C 393.30 203.00 393.30 236.00 393.30 269.00 C 392.04 291.30 393.04 313.65 392.63 335.97 C 391.11 372.60 373.89 408.20 346.18 432.19 C 330.93 445.59 312.61 455.39 293.09 460.89 C 284.17 463.46 274.90 464.36 265.84 466.24 C 253.40 468.34 241.00 465.41 228.82 463.14 C 199.20 457.08 171.87 440.69 152.47 417.52 C 130.73 392.06 119.36 358.37 119.99 325.00 C 120.09 245.09 119.87 165.18 120.11 85.27 M 130.01 97.01 C 130.05 156.58 129.94 216.15 130.07 275.71 C 172.32 275.64 214.59 275.66 256.84 275.70 C 256.97 271.80 257.23 267.90 257.21 263.99 C 256.96 208.35 257.43 152.71 256.97 97.07 C 249.99 96.95 243.00 96.99 236.02 97.02 C 235.99 109.70 236.04 122.38 236.06 135.06 C 235.97 138.55 235.85 142.56 233.17 145.15 C 229.98 148.22 225.25 148.59 221.05 148.66 C 207.02 148.62 192.98 148.59 178.94 148.67 C 174.70 148.63 169.88 148.47 166.60 145.39 C 163.74 142.38 163.61 137.92 163.50 134.01 C 163.58 121.70 163.48 109.40 163.61 97.10 C 152.41 96.92 141.21 97.04 130.01 97.01 M 257.04 275.71 C 257.27 335.47 257.11 395.25 257.14 455.02 C 273.35 455.83 289.31 451.88 304.45 446.43 C 329.57 436.05 351.08 417.34 365.03 394.02 C 368.91 388.43 370.91 381.88 373.65 375.71 C 380.55 359.80 383.12 342.26 382.70 325.00 C 382.68 308.60 382.69 292.20 382.70 275.80 C 340.81 275.54 298.93 275.71 257.04 275.71 Z" />
</g>
</svg>
