<?xml version="1.0" encoding="UTF-8" ?>
<!DOCTYPE svg PUBLIC "-//W3C//DTD SVG 1.1//EN" "http://www.w3.org/Graphics/SVG/1.1/DTD/svg11.dtd">
<svg width="512pt" height="512pt" viewBox="0 0 512 512" version="1.1" xmlns="http://www.w3.org/2000/svg">
<g id="#ff0000ff">
<path fill="#ff0000" opacity="1.00" d=" M 256.16 55.95 C 259.94 57.64 263.37 59.97 266.95 62.02 C 310.61 87.79 354.21 113.68 397.90 139.40 C 397.75 152.01 396.11 164.53 395.34 177.11 C 390.55 228.08 384.70 279.11 373.16 329.06 C 369.72 343.39 365.77 357.64 360.29 371.33 C 356.22 381.50 351.17 391.52 343.38 399.38 C 333.01 409.81 321.31 418.81 309.45 427.46 C 293.45 439.01 277.00 449.93 260.18 460.24 C 258.07 461.70 255.34 460.97 253.37 459.63 C 233.18 447.07 213.20 434.11 194.15 419.86 C 183.46 411.69 172.70 403.31 164.22 392.77 C 155.70 380.78 150.82 366.68 146.35 352.79 C 138.01 325.04 132.81 296.46 128.31 267.86 C 122.60 230.22 118.64 192.33 115.66 154.38 C 115.62 149.41 114.26 144.58 114.23 139.61 C 146.96 120.67 179.28 101.02 211.96 81.99 C 226.74 73.38 241.32 64.44 256.16 55.95 M 255.95 67.26 C 255.58 102.17 255.89 137.09 255.79 172.00 C 255.79 260.67 255.79 349.33 255.79 438.00 C 255.84 441.98 255.49 446.01 256.26 449.95 C 259.32 449.89 261.56 447.51 264.09 446.11 C 272.34 441.12 279.59 434.71 287.97 429.91 C 302.00 420.10 316.33 410.58 329.07 399.07 C 335.05 393.71 340.93 387.96 344.64 380.74 C 349.35 370.72 353.98 360.60 356.68 349.83 C 365.17 323.60 368.63 296.16 374.31 269.29 C 380.69 228.34 384.64 187.05 387.73 145.74 C 380.90 141.86 374.73 136.96 367.80 133.22 C 336.77 114.84 305.57 96.76 274.38 78.67 C 268.56 74.36 262.35 70.62 255.95 67.26 Z" />
</g>
</svg>
