<?xml version="1.0" encoding="UTF-8" ?>
<!DOCTYPE svg PUBLIC "-//W3C//DTD SVG 1.1//EN" "http://www.w3.org/Graphics/SVG/1.1/DTD/svg11.dtd">
<svg width="512pt" height="512pt" viewBox="0 0 512 512" version="1.1" xmlns="http://www.w3.org/2000/svg">
<g id="#ff0000ff">
<path fill="#ff0000" opacity="1.00" d=" M 189.32 176.31 C 209.64 135.27 229.36 93.94 249.97 53.05 C 262.30 77.47 274.16 102.15 286.39 126.64 C 294.49 144.07 303.25 161.19 311.69 178.46 C 357.63 185.51 403.71 191.75 449.65 198.76 C 416.74 231.56 383.35 263.92 349.99 296.26 C 357.71 342.34 365.76 388.36 373.58 434.43 C 368.75 431.00 363.26 428.69 358.10 425.83 C 322.17 406.74 286.00 388.11 249.99 369.18 C 209.97 390.06 169.92 410.91 130.03 432.07 C 128.78 432.77 127.58 433.57 126.40 434.40 C 134.12 388.29 142.27 342.25 149.95 296.14 C 132.25 279.49 115.10 262.26 97.61 245.38 C 81.76 229.90 65.86 214.47 50.30 198.72 C 93.82 192.24 137.40 186.03 180.95 179.65 C 183.83 178.97 188.21 179.91 189.32 176.31 M 196.98 182.98 C 194.81 187.45 189.59 188.62 185.10 189.19 C 153.30 193.66 121.54 198.44 89.75 202.97 C 83.56 203.86 77.41 205.15 71.16 205.44 C 73.91 207.80 76.33 210.50 79.02 212.93 C 80.03 214.03 81.63 213.69 82.96 213.80 C 126.15 213.71 169.34 213.83 212.53 213.74 C 212.50 193.09 212.56 172.44 212.51 151.80 C 207.25 162.15 202.56 172.80 196.98 182.98 M 288.96 155.92 C 288.51 175.18 288.79 194.47 288.81 213.74 C 332.15 213.77 375.50 213.83 418.84 213.71 C 423.01 212.40 425.33 207.99 428.77 205.43 C 423.70 205.22 418.71 204.29 413.71 203.51 C 380.78 198.72 347.85 193.89 314.90 189.19 C 310.88 188.57 306.26 187.84 303.74 184.25 C 300.44 179.57 298.72 174.01 295.84 169.07 C 293.36 164.78 291.98 159.88 288.96 155.92 M 158.91 290.24 C 160.05 294.43 160.34 298.80 159.08 303.01 C 152.36 340.52 146.20 378.13 139.66 415.67 C 163.94 402.93 188.18 390.12 212.44 377.35 C 212.65 348.32 212.45 319.28 212.54 290.25 C 194.67 290.19 176.79 290.21 158.91 290.24 M 288.80 290.25 C 288.69 319.49 288.74 348.74 288.78 377.98 C 312.50 390.62 336.35 403.01 360.10 415.57 C 356.26 392.00 352.23 368.46 348.06 344.94 C 347.09 335.62 344.38 326.58 343.49 317.25 C 342.40 308.30 338.39 299.25 341.09 290.24 C 323.66 290.22 306.23 290.19 288.80 290.25 Z" />
</g>
</svg>
