<?xml version="1.0" encoding="UTF-8" ?>
<!DOCTYPE svg PUBLIC "-//W3C//DTD SVG 1.1//EN" "http://www.w3.org/Graphics/SVG/1.1/DTD/svg11.dtd">
<svg width="512pt" height="512pt" viewBox="0 0 512 512" version="1.1" xmlns="http://www.w3.org/2000/svg">
<g id="#00ff00ff">
<path fill="#00ff00" opacity="1.00" d=" M 98.32 116.51 C 99.87 116.44 101.42 116.33 102.98 116.28 C 207.30 116.40 311.62 116.20 415.94 116.39 C 413.89 127.73 413.62 139.29 412.52 150.75 C 409.63 186.03 405.79 221.25 400.66 256.29 C 397.07 280.77 392.78 305.17 387.17 329.28 C 382.24 349.74 376.67 370.25 367.36 389.21 C 359.72 405.01 346.71 417.40 332.97 427.94 C 317.79 439.43 300.97 448.91 282.94 455.10 C 272.57 458.38 261.64 460.98 250.71 459.41 C 230.02 456.12 210.81 446.84 193.24 435.74 C 179.93 427.09 167.30 417.13 157.06 404.94 C 149.88 396.40 145.19 386.15 140.98 375.92 C 132.77 354.77 127.42 332.65 122.77 310.48 C 112.65 260.49 106.61 209.77 102.02 159.02 C 100.59 144.87 100.19 130.62 98.32 116.51 Z" />
</g>
</svg>
