<?xml version="1.0" encoding="UTF-8" ?>
<!DOCTYPE svg PUBLIC "-//W3C//DTD SVG 1.1//EN" "http://www.w3.org/Graphics/SVG/1.1/DTD/svg11.dtd">
<svg width="283pt" height="369pt" viewBox="0 0 283 369" version="1.1" xmlns="http://www.w3.org/2000/svg">
<g id="#ff0000ff">
<path fill="#ff0000" opacity="1.00" d=" M 0.82 0.00 L 281.36 0.00 C 275.15 16.82 268.65 33.53 262.29 50.30 C 256.43 66.16 249.75 81.74 244.75 97.90 C 234.85 122.17 226.35 147.00 216.20 171.17 C 208.01 192.37 200.04 213.66 191.88 234.87 C 186.06 250.40 179.80 265.75 174.48 281.46 C 166.38 303.25 157.90 324.90 149.67 346.64 C 146.88 353.87 144.28 361.17 141.18 368.27 C 137.03 358.44 133.45 348.38 129.60 338.43 C 120.63 314.69 111.16 291.13 102.81 267.16 C 90.39 234.58 78.01 201.98 65.48 169.45 C 60.02 156.68 55.32 143.60 50.35 130.64 C 45.07 116.56 39.30 102.67 34.61 88.38 C 23.34 58.92 12.25 29.39 0.82 0.00 M 16.27 11.10 C 19.59 18.67 21.92 26.60 24.67 34.38 C 27.65 42.31 30.65 50.23 34.02 58.01 C 38.58 70.63 43.39 83.17 48.40 95.62 C 67.51 95.80 86.63 95.63 105.75 95.71 C 105.77 67.53 105.73 39.36 105.77 11.18 C 75.94 11.02 46.10 11.17 16.27 11.10 M 175.99 11.18 C 175.75 16.78 175.81 22.39 175.83 28.00 C 176.00 50.57 175.50 73.15 176.08 95.71 C 195.34 95.68 214.60 95.70 233.86 95.70 C 240.90 79.42 246.23 62.47 253.21 46.16 C 257.96 34.66 261.38 22.68 265.99 11.12 C 235.99 11.14 205.99 11.04 175.99 11.18 M 75.08 165.92 C 77.09 172.34 79.98 178.42 82.32 184.71 C 89.95 204.91 97.90 224.99 105.69 245.13 C 105.83 218.73 105.73 192.33 105.74 165.93 C 95.53 165.61 85.30 165.63 75.08 165.92 M 176.09 165.90 C 175.50 182.59 175.99 199.30 175.83 216.00 C 176.01 225.82 175.43 235.67 176.19 245.47 C 180.63 236.17 183.71 226.31 187.70 216.82 C 191.30 207.67 194.82 198.49 198.23 189.27 C 201.12 181.44 204.85 173.93 207.19 165.90 C 196.82 165.64 186.45 165.64 176.09 165.90 Z" />
</g>
</svg>
