<?xml version="1.0" encoding="UTF-8" ?>
<!DOCTYPE svg PUBLIC "-//W3C//DTD SVG 1.1//EN" "http://www.w3.org/Graphics/SVG/1.1/DTD/svg11.dtd">
<svg width="512pt" height="512pt" viewBox="0 0 512 512" version="1.1" xmlns="http://www.w3.org/2000/svg">
<g id="#ff0000ff">
<path fill="#ff0000" opacity="1.00" d=" M 239.17 66.14 C 245.01 62.60 251.02 59.33 256.74 55.59 C 290.60 76.05 324.90 95.77 358.85 116.09 C 372.16 123.94 385.39 131.95 398.82 139.59 C 396.03 170.40 393.78 201.32 389.76 232.03 C 388.37 246.03 385.79 259.85 383.81 273.76 C 379.90 297.71 375.52 321.62 369.06 345.02 C 365.15 358.67 360.73 372.29 354.01 384.85 C 349.87 392.70 343.89 399.43 337.25 405.26 C 324.21 417.10 309.85 427.36 295.38 437.37 C 284.07 445.15 272.54 452.62 260.87 459.86 C 258.86 461.35 256.04 461.46 253.99 459.98 C 235.37 448.49 217.01 436.54 199.29 423.68 C 188.45 415.68 177.66 407.44 168.37 397.62 C 160.96 390.00 156.54 380.12 152.53 370.43 C 141.86 342.96 136.27 313.88 131.08 284.97 C 129.36 274.03 127.26 263.12 126.31 252.07 C 122.07 222.57 119.19 192.90 116.62 163.22 C 116.14 155.27 115.25 147.35 115.25 139.37 C 156.60 115.03 197.86 90.54 239.17 66.14 M 237.39 79.45 C 203.68 99.01 169.93 118.52 136.47 138.51 C 132.93 141.15 129.13 143.40 125.37 145.70 C 128.23 183.12 131.61 220.56 137.31 257.66 C 177.16 257.68 217.02 257.64 256.88 257.69 C 257.53 241.14 256.98 224.56 257.16 208.00 C 257.07 161.12 257.35 114.23 257.02 67.36 C 250.18 70.88 243.71 75.07 237.39 79.45 M 257.17 257.66 C 257.18 321.89 257.12 386.11 257.20 450.34 C 268.43 444.12 278.16 435.68 289.17 429.12 C 306.01 417.23 323.49 405.80 337.66 390.66 C 344.71 383.24 347.87 373.32 352.02 364.20 C 360.39 341.10 365.48 317.00 369.75 292.85 C 371.53 281.07 374.77 269.58 376.04 257.72 C 336.42 257.59 296.79 257.71 257.17 257.66 Z" />
</g>
</svg>
