<?xml version="1.0" encoding="UTF-8" ?>
<!DOCTYPE svg PUBLIC "-//W3C//DTD SVG 1.1//EN" "http://www.w3.org/Graphics/SVG/1.1/DTD/svg11.dtd">
<svg width="512pt" height="512pt" viewBox="0 0 512 512" version="1.1" xmlns="http://www.w3.org/2000/svg">
<g id="#00ff00ff">
<path fill="#00ff00" opacity="1.00" d=" M 117.34 84.15 C 135.39 83.88 153.45 84.13 171.50 84.03 C 171.48 101.79 171.51 119.56 171.49 137.33 C 189.27 137.37 207.06 137.31 224.84 137.36 C 224.89 119.58 224.84 101.80 224.87 84.02 C 244.98 84.14 265.10 83.87 285.21 84.16 C 285.14 101.88 285.19 119.61 285.18 137.34 C 302.94 137.34 320.69 137.35 338.45 137.33 C 338.43 119.60 338.53 101.86 338.40 84.12 C 357.72 84.05 377.06 83.86 396.38 84.21 C 396.22 165.46 396.36 246.72 396.31 327.97 C 396.87 345.29 391.06 362.36 381.68 376.78 C 370.04 394.66 354.43 409.58 337.84 422.82 C 314.14 441.46 288.14 457.05 261.09 470.30 C 259.03 471.27 256.67 472.69 254.44 471.33 C 234.34 461.80 215.04 450.63 196.57 438.27 C 175.34 423.70 154.89 407.39 138.93 387.01 C 127.59 372.53 118.50 355.32 117.45 336.64 C 117.31 252.48 117.55 168.31 117.34 84.15 Z" />
</g>
</svg>
