<?xml version="1.0" encoding="UTF-8" ?>
<!DOCTYPE svg PUBLIC "-//W3C//DTD SVG 1.1//EN" "http://www.w3.org/Graphics/SVG/1.1/DTD/svg11.dtd">
<svg width="283pt" height="369pt" viewBox="0 0 283 369" version="1.1" xmlns="http://www.w3.org/2000/svg">
<g id="#ff0000ff">
<path fill="#ff0000" opacity="1.00" d=" M 0.00 0.00 L 283.00 0.00 L 283.00 1.22 C 279.19 5.91 277.30 11.68 275.28 17.28 C 260.59 55.90 245.90 94.53 231.10 133.11 C 226.30 145.58 221.79 158.17 216.50 170.44 C 207.98 192.37 199.77 214.40 191.32 236.35 C 186.05 250.42 180.36 264.33 175.56 278.57 C 168.20 298.44 160.50 318.19 152.96 338.00 C 149.02 348.08 145.48 358.32 141.17 368.25 C 137.98 360.81 135.25 353.19 132.34 345.64 C 124.12 323.89 115.60 302.26 107.54 280.45 C 102.74 266.22 97.07 252.31 91.80 238.26 C 83.20 215.82 74.73 193.33 66.04 170.93 C 60.11 156.94 54.96 142.63 49.52 128.45 C 35.16 91.09 20.93 53.69 6.74 16.27 C 5.00 11.25 3.03 6.28 0.00 1.89 L 0.00 0.00 M 64.79 11.15 C 64.48 50.76 64.81 90.38 64.63 130.00 C 64.62 133.79 64.55 137.68 65.84 141.30 C 70.65 154.11 75.06 167.07 80.36 179.70 C 86.60 195.79 92.67 211.95 99.04 227.99 C 101.20 233.61 103.23 239.30 106.04 244.64 C 106.72 238.78 106.40 232.88 106.45 227.00 C 106.44 163.00 106.45 99.00 106.44 35.00 C 106.39 27.05 106.61 19.10 106.30 11.15 C 92.46 11.08 78.63 11.09 64.79 11.15 M 176.42 11.23 C 176.60 35.49 176.46 59.75 176.50 84.01 C 176.42 138.01 176.67 192.03 176.37 246.03 C 179.31 237.86 182.78 229.89 185.71 221.72 C 192.11 206.27 197.49 190.42 203.97 175.01 C 207.05 167.03 210.12 159.05 212.97 150.99 C 215.31 144.51 218.51 138.07 218.33 131.01 C 218.20 91.06 218.48 51.10 218.19 11.15 C 204.27 11.12 190.34 10.99 176.42 11.23 Z" />
</g>
</svg>
