<?xml version="1.0" encoding="UTF-8" ?>
<!DOCTYPE svg PUBLIC "-//W3C//DTD SVG 1.1//EN" "http://www.w3.org/Graphics/SVG/1.1/DTD/svg11.dtd">
<svg width="512pt" height="512pt" viewBox="0 0 512 512" version="1.1" xmlns="http://www.w3.org/2000/svg">
<g id="#ff0000ff">
<path fill="#ff0000" opacity="1.00" d=" M 98.34 116.44 C 155.56 116.02 212.79 116.66 270.00 116.09 C 318.65 116.16 367.30 115.95 415.94 116.19 C 415.00 125.20 413.99 134.19 413.45 143.24 C 409.75 189.41 404.65 235.49 396.98 281.17 C 392.01 307.05 387.23 333.04 379.38 358.24 C 373.66 376.03 367.17 394.34 354.40 408.41 C 340.23 424.05 322.75 436.45 304.07 446.11 C 290.60 452.90 276.15 458.50 261.01 459.77 C 251.05 460.80 241.28 458.05 231.91 455.02 C 208.79 446.97 187.52 433.95 169.18 417.81 C 161.65 410.93 154.58 403.35 149.50 394.46 C 141.82 381.05 136.94 366.28 132.52 351.54 C 125.69 327.80 120.56 303.56 116.93 279.13 C 109.55 235.03 104.63 190.55 100.91 146.02 C 100.09 136.15 99.73 126.25 98.34 116.44 M 109.51 127.03 C 111.89 155.73 114.59 184.41 117.98 213.02 C 119.89 229.56 122.78 246.01 124.55 262.58 C 125.78 270.95 126.89 279.34 128.57 287.64 C 171.31 287.74 214.06 287.71 256.81 287.65 C 256.93 341.68 256.61 395.72 256.97 449.75 C 264.29 448.95 271.59 447.79 278.61 445.48 C 287.14 443.64 294.84 439.42 302.56 435.53 C 311.56 430.86 319.52 424.51 328.04 419.08 C 341.24 408.61 353.80 396.26 360.26 380.38 C 363.06 375.15 365.22 369.58 366.68 363.82 C 375.00 339.04 381.02 313.50 385.31 287.73 C 342.54 287.65 299.77 287.72 257.00 287.69 C 256.88 285.81 256.82 283.93 256.81 282.05 C 256.83 230.38 256.80 178.72 256.82 127.05 C 207.72 127.00 158.62 127.05 109.51 127.03 Z" />
</g>
</svg>
