<?xml version="1.0" encoding="UTF-8" ?>
<!DOCTYPE svg PUBLIC "-//W3C//DTD SVG 1.1//EN" "http://www.w3.org/Graphics/SVG/1.1/DTD/svg11.dtd">
<svg width="512pt" height="512pt" viewBox="0 0 512 512" version="1.1" xmlns="http://www.w3.org/2000/svg">
<g id="#ff0000ff">
<path fill="#ff0000" opacity="1.00" d=" M 231.18 73.16 C 239.73 67.44 248.50 62.04 256.86 56.04 C 270.71 66.01 285.59 74.47 299.27 84.68 C 331.33 105.85 363.54 126.78 395.58 147.97 C 393.12 168.66 390.49 189.32 387.95 210.00 C 387.33 214.69 387.74 219.44 387.06 224.13 C 384.30 245.08 381.90 266.08 379.22 287.04 C 378.70 291.31 377.44 295.44 376.87 299.71 C 372.84 333.06 368.64 366.39 364.54 399.73 C 342.56 411.43 320.32 422.64 298.33 434.34 C 285.18 442.21 271.03 448.25 257.92 456.20 C 249.96 451.26 241.54 447.15 233.34 442.65 C 207.78 428.85 182.17 415.14 156.56 401.45 C 152.30 399.76 153.01 394.59 152.21 390.91 C 141.31 313.91 130.01 236.97 119.05 159.98 C 118.50 156.04 117.89 152.09 116.78 148.26 C 154.93 123.26 193.09 98.26 231.18 73.16 M 128.25 152.59 C 130.98 174.13 134.40 195.58 137.36 217.09 C 164.66 217.32 191.96 217.20 219.26 217.16 C 219.33 175.86 219.48 134.56 219.19 93.27 C 188.63 112.66 158.70 133.02 128.25 152.59 M 295.72 94.53 C 295.46 135.40 295.56 176.28 295.67 217.16 C 322.76 217.22 349.86 217.28 376.95 217.13 C 379.61 197.27 381.70 177.33 384.43 157.48 C 384.68 155.28 385.24 152.37 382.66 151.34 C 353.61 132.51 324.91 113.13 295.72 94.53 M 148.23 293.44 C 150.60 307.09 152.00 320.89 154.38 334.54 C 156.79 354.22 160.31 373.76 162.62 393.45 C 181.59 403.28 200.22 413.74 219.20 423.56 C 219.38 418.37 219.35 413.19 219.34 408.00 C 219.23 369.80 219.54 331.59 219.18 293.40 C 195.53 293.48 171.88 293.39 148.23 293.44 M 295.75 293.38 C 295.39 304.25 295.67 315.13 295.58 326.00 C 295.66 358.74 295.43 391.47 295.70 424.21 C 315.70 414.22 335.39 403.61 355.28 393.41 C 356.56 384.52 357.14 375.56 358.51 366.69 C 361.74 342.29 364.36 317.82 367.70 293.44 C 343.71 293.39 319.73 293.49 295.75 293.38 Z" />
</g>
</svg>
