<?xml version="1.0" encoding="UTF-8" ?>
<!DOCTYPE svg PUBLIC "-//W3C//DTD SVG 1.1//EN" "http://www.w3.org/Graphics/SVG/1.1/DTD/svg11.dtd">
<svg width="512pt" height="512pt" viewBox="0 0 512 512" version="1.1" xmlns="http://www.w3.org/2000/svg">
<g id="#ff0000ff">
<path fill="#ff0000" opacity="1.00" d=" M 241.45 67.79 C 248.27 67.06 255.15 67.26 262.00 67.01 C 269.99 66.72 277.84 68.44 285.71 69.53 C 322.25 75.08 356.95 91.82 384.13 116.85 C 408.67 139.29 427.19 168.30 436.98 200.09 C 442.13 217.21 445.58 235.05 445.01 253.00 C 446.12 290.99 434.65 329.05 413.60 360.61 C 385.25 403.44 338.73 433.76 287.98 441.96 C 279.36 443.17 270.77 445.01 262.01 444.81 C 251.55 445.25 241.04 445.17 230.75 443.05 C 197.23 438.41 165.04 424.54 138.72 403.27 C 110.25 380.52 88.62 349.31 77.34 314.64 C 72.22 298.92 69.36 282.52 68.09 266.06 C 67.72 242.74 70.30 219.15 77.79 196.97 C 89.67 160.46 113.26 127.95 144.00 104.99 C 167.62 87.29 195.47 75.24 224.58 70.32 C 230.19 69.37 235.82 68.60 241.45 67.79 M 215.57 82.51 C 202.86 84.78 191.04 90.14 179.28 95.26 C 171.67 98.67 164.73 103.35 157.64 107.70 C 125.82 128.82 101.28 160.56 88.57 196.55 C 83.77 208.50 81.82 221.29 79.90 233.95 C 78.75 241.14 79.30 248.46 78.22 255.65 C 137.77 255.72 197.33 255.63 256.88 255.69 C 257.50 247.47 257.08 239.23 257.19 231.00 C 257.13 180.03 257.31 129.06 257.10 78.08 C 243.10 77.31 229.22 79.62 215.57 82.51 M 257.17 255.74 C 257.23 315.39 257.15 375.05 257.21 434.70 C 260.11 434.28 263.04 434.09 265.97 433.98 C 277.80 433.85 289.40 431.27 300.95 428.97 C 312.99 426.48 324.15 421.19 335.36 416.33 C 342.27 413.21 348.46 408.77 355.02 405.03 C 385.07 385.05 409.10 355.99 422.34 322.36 C 428.26 309.02 430.89 294.59 433.31 280.29 C 434.25 272.14 435.37 263.98 434.98 255.76 C 375.71 255.61 316.44 255.65 257.17 255.74 Z" />
</g>
</svg>
