<?xml version="1.0" encoding="UTF-8" ?>
<!DOCTYPE svg PUBLIC "-//W3C//DTD SVG 1.1//EN" "http://www.w3.org/Graphics/SVG/1.1/DTD/svg11.dtd">
<svg width="512pt" height="512pt" viewBox="0 0 512 512" version="1.1" xmlns="http://www.w3.org/2000/svg">
<g id="#ff0000ff">
<path fill="#ff0000" opacity="1.00" d=" M 189.30 176.31 C 209.71 135.37 229.20 93.97 249.98 53.22 C 270.70 94.01 290.30 135.37 310.64 176.35 C 311.47 178.79 314.19 179.01 316.37 179.36 C 360.85 185.20 405.20 192.01 449.54 198.79 C 441.10 207.60 432.07 215.83 423.46 224.46 C 399.25 248.60 374.61 272.31 350.18 296.23 C 357.80 342.20 366.18 388.06 373.54 434.07 C 357.36 425.81 341.35 417.22 325.37 408.59 C 300.33 395.28 275.03 382.49 249.99 369.16 C 228.19 380.72 206.19 391.88 184.38 403.42 C 173.42 409.06 162.72 415.20 151.75 420.82 C 143.23 425.45 134.46 429.60 126.16 434.63 C 133.85 388.47 141.98 342.39 149.76 296.24 C 130.52 277.49 111.30 258.72 92.07 239.95 C 78.48 225.93 63.99 212.80 50.43 198.76 C 94.79 192.11 139.12 185.12 183.62 179.36 C 185.81 179.07 188.44 178.72 189.30 176.31 M 197.35 182.35 C 195.76 185.44 192.85 187.73 189.41 188.36 C 182.33 189.89 175.10 190.60 167.92 191.49 C 167.50 212.65 167.86 233.83 167.74 255.00 C 167.83 303.52 167.56 352.05 167.87 400.57 C 183.16 393.06 198.08 384.82 213.18 376.95 C 213.36 305.30 213.17 233.65 213.27 162.00 C 213.29 158.50 213.23 155.00 212.97 151.50 C 207.21 161.50 202.94 172.27 197.35 182.35 M 289.47 155.91 C 289.50 230.07 289.39 304.22 289.52 378.37 C 304.49 386.42 319.56 394.29 334.70 402.03 C 334.75 332.03 334.75 262.03 334.70 192.04 C 327.81 190.93 320.87 190.19 313.98 189.07 C 310.48 188.44 306.60 187.69 304.22 184.78 C 301.25 181.09 299.69 176.55 297.54 172.39 C 294.75 166.94 292.09 161.44 289.47 155.91 M 71.16 205.44 C 77.90 211.60 84.07 218.38 91.03 224.32 C 91.30 217.17 91.23 210.02 91.09 202.88 C 84.44 203.71 77.85 205.01 71.16 205.44 M 411.91 203.23 C 411.78 209.27 411.69 215.32 411.99 221.36 C 417.84 216.32 423.07 210.62 428.81 205.45 C 423.13 205.05 417.52 204.15 411.91 203.23 Z" />
</g>
</svg>
