<?xml version="1.0" encoding="UTF-8" ?>
<!DOCTYPE svg PUBLIC "-//W3C//DTD SVG 1.1//EN" "http://www.w3.org/Graphics/SVG/1.1/DTD/svg11.dtd">
<svg width="512pt" height="512pt" viewBox="0 0 512 512" version="1.1" xmlns="http://www.w3.org/2000/svg">
<g id="#ff0000ff">
<path fill="#ff0000" opacity="1.00" d=" M 132.33 77.27 C 215.50 77.22 298.68 77.30 381.85 77.23 C 381.71 155.82 382.11 234.41 382.00 313.00 C 381.55 355.10 382.10 397.21 381.69 439.31 C 340.15 408.24 298.58 377.20 256.98 346.21 C 215.41 377.12 173.86 408.07 132.45 439.19 C 132.27 401.80 132.47 364.40 132.34 327.01 C 131.74 314.68 132.10 302.34 132.01 290.00 C 132.17 254.33 131.63 218.66 132.39 183.00 C 132.33 147.76 132.45 112.51 132.33 77.27 M 143.08 88.03 C 143.11 123.18 143.12 158.33 143.07 193.48 C 219.33 193.58 295.60 193.61 371.86 193.47 C 371.81 158.32 371.81 123.18 371.86 88.04 C 295.60 88.03 219.34 88.05 143.08 88.03 M 143.09 322.80 C 143.12 354.60 143.07 386.40 143.11 418.20 C 157.60 408.50 170.74 396.95 185.16 387.17 C 197.93 377.98 210.05 367.91 222.96 358.92 C 230.58 353.23 238.25 347.60 245.72 341.71 C 249.03 339.13 252.56 336.09 257.00 336.04 C 260.94 336.02 264.10 338.64 267.07 340.89 C 276.31 348.01 285.56 355.12 295.04 361.92 C 308.19 371.01 320.22 381.60 333.54 390.45 C 346.48 399.70 358.49 410.20 371.84 418.89 C 371.82 386.87 371.82 354.84 371.84 322.81 C 295.59 322.76 219.34 322.78 143.09 322.80 Z" />
</g>
</svg>
