<?xml version="1.0" encoding="UTF-8" ?>
<!DOCTYPE svg PUBLIC "-//W3C//DTD SVG 1.1//EN" "http://www.w3.org/Graphics/SVG/1.1/DTD/svg11.dtd">
<svg width="512pt" height="512pt" viewBox="0 0 512 512" version="1.1" xmlns="http://www.w3.org/2000/svg">
<g id="#ff0000ff">
<path fill="#ff0000" opacity="1.00" d=" M 98.36 116.41 C 147.91 116.19 197.46 116.38 247.00 116.31 C 303.31 116.37 359.62 116.19 415.93 116.40 C 413.89 127.74 413.62 139.28 412.52 150.73 C 411.58 161.69 410.69 172.65 409.53 183.58 C 408.66 194.35 406.78 205.05 406.51 215.85 C 400.71 259.34 394.85 303.00 383.47 345.46 C 376.76 365.85 371.19 387.45 357.61 404.59 C 345.68 419.16 330.51 430.78 314.42 440.41 C 298.99 449.45 282.28 456.90 264.46 459.50 C 253.21 460.94 242.03 458.07 231.41 454.61 C 210.56 447.25 191.25 435.81 174.17 421.82 C 164.05 413.24 154.39 403.63 148.26 391.71 C 140.18 376.85 135.59 360.50 130.41 344.51 C 119.30 302.85 113.26 260.08 107.72 217.39 C 106.72 202.17 104.39 187.06 103.27 171.84 C 101.13 153.40 100.51 134.83 98.36 116.41 M 109.53 127.05 C 111.99 156.11 114.48 185.18 118.25 214.10 C 210.75 214.18 303.25 214.19 395.75 214.09 C 396.10 211.37 396.69 208.68 396.87 205.94 C 399.46 179.67 402.77 153.43 403.99 127.04 C 305.84 127.03 207.68 127.02 109.53 127.05 M 142.90 349.04 C 144.33 353.96 146.16 358.77 147.42 363.74 C 150.02 373.25 154.58 382.04 159.27 390.66 C 166.29 401.40 175.66 410.41 185.76 418.24 C 199.83 427.90 214.14 437.64 230.29 443.54 C 239.40 446.04 248.48 449.01 257.99 449.53 C 267.46 448.95 276.58 446.18 285.60 443.45 C 298.61 438.34 310.84 431.33 322.05 422.99 C 330.86 417.81 338.24 410.60 345.31 403.30 C 351.52 396.56 356.77 388.89 360.26 380.38 C 365.63 370.56 367.64 359.42 371.49 349.00 C 295.29 348.97 219.09 348.87 142.90 349.04 Z" />
</g>
</svg>
