<?xml version="1.0" encoding="UTF-8" ?>
<!DOCTYPE svg PUBLIC "-//W3C//DTD SVG 1.1//EN" "http://www.w3.org/Graphics/SVG/1.1/DTD/svg11.dtd">
<svg width="512pt" height="512pt" viewBox="0 0 512 512" version="1.1" xmlns="http://www.w3.org/2000/svg">
<g id="#ff0000ff">
<path fill="#ff0000" opacity="1.00" d=" M 117.37 84.10 C 135.39 83.96 153.41 84.08 171.43 84.03 C 171.57 101.75 171.49 119.47 171.46 137.19 C 189.25 137.49 207.05 137.34 224.85 137.27 C 224.91 119.53 224.79 101.79 224.90 84.05 C 244.97 84.05 265.04 83.98 285.12 84.09 C 285.26 101.81 285.12 119.54 285.18 137.26 C 302.91 137.41 320.65 137.37 338.38 137.28 C 338.53 119.56 338.46 101.83 338.41 84.10 C 357.69 84.00 376.97 83.98 396.26 84.11 C 396.39 112.74 396.27 141.37 396.31 170.00 C 396.39 181.32 396.00 192.65 396.84 203.95 C 396.94 247.31 396.80 290.68 396.91 334.04 C 397.16 340.31 394.54 346.13 393.13 352.12 C 386.57 374.45 371.09 392.77 354.51 408.51 C 332.32 429.11 306.79 445.78 280.35 460.38 C 273.32 464.06 266.41 468.01 259.12 471.16 C 256.98 472.32 254.61 471.45 252.60 470.49 C 234.08 461.52 216.20 451.26 199.04 439.92 C 175.92 424.31 153.62 406.66 136.79 384.19 C 126.62 370.75 119.18 354.89 117.12 338.07 C 116.93 295.05 117.12 252.02 117.03 209.00 C 116.94 202.66 117.49 196.34 117.43 190.00 C 117.37 154.70 117.47 119.40 117.37 84.10 M 127.37 94.11 C 127.46 129.09 127.41 164.07 127.40 199.05 C 157.26 199.37 187.13 199.10 217.00 199.19 C 273.27 199.15 329.55 199.27 385.83 199.13 C 385.88 164.10 385.83 129.08 385.86 94.06 C 373.38 94.06 360.89 93.97 348.41 94.11 C 348.52 106.74 348.40 119.37 348.51 132.00 C 348.46 136.43 348.32 141.59 344.77 144.79 C 341.98 147.59 337.83 148.05 334.07 148.04 C 319.70 148.00 305.33 147.97 290.96 148.05 C 286.36 148.13 281.28 147.52 277.83 144.15 C 274.90 141.28 274.96 136.85 274.86 133.04 C 274.92 120.04 274.89 107.05 274.90 94.05 C 261.57 94.04 248.24 94.01 234.91 94.07 C 234.81 107.06 234.88 120.06 234.90 133.06 C 234.92 137.26 234.29 142.03 230.85 144.89 C 227.66 147.79 223.14 148.09 219.05 148.05 C 204.67 147.97 190.30 148.01 175.93 148.04 C 172.17 148.05 168.03 147.59 165.23 144.79 C 161.95 141.87 161.49 137.18 161.46 133.05 C 161.46 120.05 161.58 107.05 161.42 94.05 C 150.07 94.05 138.72 93.97 127.37 94.11 M 128.05 343.08 C 130.99 356.06 137.06 368.26 145.42 378.60 C 155.14 391.69 166.84 403.30 179.84 413.13 C 194.01 424.60 208.91 435.22 224.84 444.10 C 232.52 448.03 239.83 452.63 247.52 456.54 C 250.59 458.04 253.50 460.08 256.90 460.73 C 258.61 460.39 260.18 459.55 261.74 458.80 C 271.94 453.38 281.85 447.44 292.06 442.05 C 307.58 433.01 322.22 422.50 336.06 411.05 C 350.08 400.49 361.80 387.20 372.08 373.05 C 378.35 364.02 382.84 353.77 385.22 343.04 C 339.82 342.72 294.40 342.99 249.00 342.90 C 208.68 343.02 168.36 342.67 128.05 343.08 Z" />
</g>
</svg>
