<?xml version="1.0" encoding="UTF-8" ?>
<!DOCTYPE svg PUBLIC "-//W3C//DTD SVG 1.1//EN" "http://www.w3.org/Graphics/SVG/1.1/DTD/svg11.dtd">
<svg width="512pt" height="512pt" viewBox="0 0 512 512" version="1.1" xmlns="http://www.w3.org/2000/svg">
<g id="#ff0000ff">
<path fill="#ff0000" opacity="1.00" d=" M 247.40 53.65 C 249.24 53.37 251.09 53.18 252.96 53.15 C 265.61 53.51 278.35 55.72 289.85 61.18 C 313.66 72.30 331.68 92.80 345.06 114.94 C 366.48 151.33 376.94 193.31 380.07 235.17 C 382.70 246.96 381.85 259.10 381.80 271.08 C 381.69 276.36 380.08 281.46 379.69 286.71 C 377.48 315.20 371.38 343.44 361.09 370.12 C 350.56 396.87 335.48 422.56 313.50 441.51 C 304.24 449.48 293.70 456.08 282.11 460.05 C 272.48 463.52 262.16 464.68 251.98 464.84 C 232.88 463.47 214.63 455.23 200.07 442.93 C 178.63 425.02 163.56 400.64 152.89 375.07 C 141.03 346.47 134.45 315.84 132.11 285.02 C 131.43 279.02 129.80 273.13 130.05 267.04 C 130.31 256.70 129.20 246.20 131.47 236.01 C 132.03 233.04 132.35 230.02 132.64 227.01 C 135.13 200.25 140.97 173.74 150.63 148.63 C 161.64 120.53 177.60 93.51 201.23 74.23 C 214.39 63.34 230.48 56.08 247.40 53.65 M 256.79 61.79 C 256.67 193.26 256.67 324.73 256.79 456.20 C 263.55 455.64 270.29 454.59 276.85 452.85 C 291.16 448.51 304.08 440.14 314.61 429.61 C 323.39 420.22 331.58 410.17 337.99 398.98 C 342.97 390.60 346.44 381.45 350.76 372.73 C 353.28 368.29 355.29 363.57 356.78 358.68 C 365.52 332.69 370.71 305.47 371.84 278.07 C 371.47 269.44 375.64 261.10 373.38 252.47 C 371.31 245.74 372.17 238.64 371.36 231.74 C 370.08 213.75 366.96 195.91 362.53 178.43 C 359.16 166.95 356.22 155.18 350.50 144.59 C 347.74 138.41 344.65 132.39 341.76 126.27 C 334.31 110.94 323.57 97.44 311.50 85.50 C 300.30 75.32 286.86 67.20 271.92 64.08 C 266.89 63.19 261.86 62.34 256.79 61.79 Z" />
</g>
</svg>
