<?xml version="1.0" encoding="UTF-8" ?>
<!DOCTYPE svg PUBLIC "-//W3C//DTD SVG 1.1//EN" "http://www.w3.org/Graphics/SVG/1.1/DTD/svg11.dtd">
<svg width="512pt" height="512pt" viewBox="0 0 512 512" version="1.1" xmlns="http://www.w3.org/2000/svg">
<g id="#ff0000ff">
<path fill="#ff0000" opacity="1.00" d=" M 98.87 116.33 C 132.58 116.16 166.30 116.60 200.01 116.09 C 237.00 116.08 274.00 116.10 311.00 116.08 C 345.94 116.63 380.89 116.09 415.84 116.40 C 412.92 139.15 412.00 162.10 409.42 184.89 C 403.48 239.58 396.77 294.47 382.52 347.72 C 377.56 364.67 372.23 381.80 363.01 396.98 C 353.90 411.22 340.85 422.45 327.18 432.17 C 310.01 444.65 290.55 454.42 269.71 458.90 C 255.21 461.98 240.37 458.44 226.84 453.16 C 213.22 447.97 200.28 441.03 188.42 432.55 C 175.05 423.24 162.19 412.66 152.76 399.23 C 144.21 386.21 138.96 371.40 134.30 356.64 C 125.69 328.12 120.03 298.80 115.33 269.42 C 108.17 223.47 103.24 177.19 99.71 130.83 C 99.53 125.99 98.47 121.19 98.87 116.33 M 109.73 127.09 C 111.27 151.59 113.91 176.02 116.55 200.43 C 118.41 219.04 121.39 237.52 123.83 256.06 C 125.67 274.51 129.61 292.64 133.14 310.81 C 136.02 324.22 139.34 337.55 143.36 350.66 C 146.54 359.55 148.38 368.92 152.52 377.45 C 155.74 384.05 158.77 390.85 163.46 396.56 C 168.08 402.22 173.00 407.68 178.63 412.36 C 183.35 416.47 188.18 420.59 193.90 423.27 C 194.01 420.18 194.04 417.08 194.02 414.00 C 193.91 318.36 194.12 222.73 193.92 127.10 C 165.86 126.97 137.79 127.00 109.73 127.09 M 320.08 127.10 C 319.93 226.09 319.98 325.08 320.06 424.07 C 330.38 418.56 338.80 410.19 346.71 401.72 C 354.42 393.44 359.34 383.13 363.75 372.83 C 365.63 368.13 366.75 363.18 368.40 358.40 C 372.19 347.68 374.69 336.58 377.65 325.62 C 382.65 303.76 387.12 281.72 389.51 259.40 C 394.41 229.10 397.77 198.58 400.80 168.05 C 401.92 154.40 403.64 140.79 403.94 127.09 C 375.99 126.99 348.03 126.98 320.08 127.10 Z" />
</g>
</svg>
